<svg width="66" height="29" viewBox="0 0 66 29" fill="none" xmlns="http://www.w3.org/2000/svg">
<path d="M0.905273 28V2.21875H5.88574V28H0.905273ZM7.84863 28V6.02734H13.0928V8.8252C13.2881 7.98535 13.6494 7.27246 14.1768 6.68652C14.7139 6.09082 15.4561 5.79297 16.4033 5.79297C17.9268 5.79297 19.0303 6.26172 19.7139 7.19922C20.4072 8.13672 20.7539 9.4209 20.7539 11.0518V28H15.583V11.5938C15.583 11.1641 15.4951 10.7686 15.3193 10.4072C15.1436 10.0361 14.8408 9.85059 14.4111 9.85059C14.0107 9.85059 13.7129 9.99219 13.5176 10.2754C13.332 10.5488 13.2148 10.8955 13.166 11.3154C13.1172 11.7256 13.0928 12.1357 13.0928 12.5459V28H7.84863ZM22.79 4.67969V0.314453H28.0342V4.67969H22.79ZM22.79 28V6.02734H28.0342V28H22.79ZM36.7207 28.2344C34.2598 28.2344 32.5117 27.6045 31.4766 26.3447C30.4512 25.085 29.9385 23.2344 29.9385 20.793V14.0254C29.9385 12.1895 30.1338 10.6611 30.5244 9.44043C30.915 8.21973 31.5986 7.30664 32.5752 6.70117C33.5518 6.0957 34.9092 5.79297 36.6475 5.79297C37.8584 5.79297 38.9424 6.00781 39.8994 6.4375C40.8662 6.86719 41.6279 7.49707 42.1846 8.32715C42.7412 9.15723 43.0195 10.1729 43.0195 11.374V14.7285H37.6729V11.6523C37.6729 11.1445 37.5996 10.7197 37.4531 10.3779C37.3066 10.0264 36.9893 9.85059 36.501 9.85059C35.6416 9.85059 35.2119 10.4609 35.2119 11.6816V22.3311C35.2119 22.7803 35.3096 23.1953 35.5049 23.5762C35.7002 23.9473 36.0225 24.1328 36.4717 24.1328C36.9307 24.1328 37.248 23.9521 37.4238 23.5908C37.6094 23.2197 37.7021 22.79 37.7021 22.3018V18.6104H43.0195V22.4482C43.0195 23.6592 42.7461 24.6992 42.1992 25.5684C41.6621 26.4277 40.9199 27.0869 39.9727 27.5459C39.0254 28.0049 37.9414 28.2344 36.7207 28.2344ZM44.8213 4.67969V0.314453H50.0654V4.67969H44.8213ZM44.8213 28V6.02734H50.0654V28H44.8213ZM58.5322 28.2344C54.1572 28.2344 51.9697 25.9639 51.9697 21.4229V12.6045C51.9697 10.5342 52.5508 8.88379 53.7129 7.65332C54.875 6.41309 56.4814 5.79297 58.5322 5.79297C60.5928 5.79297 62.2041 6.41309 63.3662 7.65332C64.5283 8.88379 65.1094 10.5342 65.1094 12.6045V21.4229C65.1094 25.9639 62.917 28.2344 58.5322 28.2344ZM58.5322 24.1914C58.9717 24.1914 59.2842 24.0352 59.4697 23.7227C59.665 23.4004 59.7627 22.9951 59.7627 22.5068V11.7695C59.7627 10.4902 59.3525 9.85059 58.5322 9.85059C57.7119 9.85059 57.3018 10.4902 57.3018 11.7695V22.5068C57.3018 22.9951 57.3945 23.4004 57.5801 23.7227C57.7754 24.0352 58.0928 24.1914 58.5322 24.1914Z" fill="black"/>
</svg>
