<svg width="190" height="32" viewBox="0 0 190 32" fill="none" xmlns="http://www.w3.org/2000/svg">
<path d="M0.515625 28V2.21875H5.67188V23.6055H10.9746V28H0.515625ZM18.7383 28.2344C14.3633 28.2344 12.1758 25.9639 12.1758 21.4229V12.6045C12.1758 10.5342 12.7568 8.88379 13.9189 7.65332C15.0811 6.41309 16.6875 5.79297 18.7383 5.79297C20.7988 5.79297 22.4102 6.41309 23.5723 7.65332C24.7344 8.88379 25.3154 10.5342 25.3154 12.6045V21.4229C25.3154 25.9639 23.123 28.2344 18.7383 28.2344ZM18.7383 24.1914C19.1777 24.1914 19.4902 24.0352 19.6758 23.7227C19.8711 23.4004 19.9688 22.9951 19.9688 22.5068V11.7695C19.9688 10.4902 19.5586 9.85059 18.7383 9.85059C17.918 9.85059 17.5078 10.4902 17.5078 11.7695V22.5068C17.5078 22.9951 17.6006 23.4004 17.7861 23.7227C17.9814 24.0352 18.2988 24.1914 18.7383 24.1914ZM33.1816 31.8086C32.166 31.8086 31.292 31.7549 30.5596 31.6475C29.8369 31.5498 29.1875 31.3691 28.6113 31.1055C28.0352 30.8418 27.459 30.4707 26.8828 29.9922L28.6553 26.96C29.9346 27.7217 31.2139 28.1025 32.4932 28.1025C33.333 28.1025 33.958 27.834 34.3682 27.2969C34.7783 26.7598 34.9834 26.0615 34.9834 25.2021V23.0488C34.5635 24.5527 33.4453 25.3047 31.6289 25.3047C30.584 25.3047 29.7393 25.0557 29.0947 24.5576C28.4502 24.0596 27.9814 23.3857 27.6885 22.5361C27.3955 21.6865 27.249 20.7393 27.249 19.6943V11.7988C27.249 10.6172 27.376 9.57715 27.6299 8.67871C27.8838 7.77051 28.3281 7.0625 28.9629 6.55469C29.5977 6.04687 30.4863 5.79297 31.6289 5.79297C32.5957 5.79297 33.3477 6.03711 33.8848 6.52539C34.4316 7.01367 34.7979 7.67285 34.9834 8.50293V6.02734H40.3301V24.8652C40.3301 27.3555 39.7539 29.1328 38.6016 30.1973C37.459 31.2715 35.6523 31.8086 33.1816 31.8086ZM33.7529 21.3496C34.5732 21.3496 34.9834 20.6074 34.9834 19.123V11.6523C34.9834 11.252 34.8662 10.8418 34.6318 10.4219C34.4072 10.002 34.0947 9.79199 33.6943 9.79199C33.1865 9.79199 32.8691 9.98242 32.7422 10.3633C32.6152 10.7344 32.5518 11.1641 32.5518 11.6523V19.123C32.5518 19.6504 32.6152 20.1533 32.7422 20.6318C32.8789 21.1104 33.2158 21.3496 33.7529 21.3496ZM42.3516 4.67969V0.314453H47.5957V4.67969H42.3516ZM42.3516 28V6.02734H47.5957V28H42.3516ZM49.6758 28V6.02734H54.9199V8.8252C55.1152 7.98535 55.4766 7.27246 56.0039 6.68652C56.541 6.09082 57.2832 5.79297 58.2305 5.79297C59.7539 5.79297 60.8574 6.26172 61.541 7.19922C62.2344 8.13672 62.5811 9.4209 62.5811 11.0518V28H57.4102V11.5938C57.4102 11.1641 57.3223 10.7686 57.1465 10.4072C56.9707 10.0361 56.668 9.85059 56.2383 9.85059C55.8379 9.85059 55.54 9.99219 55.3447 10.2754C55.1592 10.5488 55.042 10.8955 54.9932 11.3154C54.9443 11.7256 54.9199 12.1357 54.9199 12.5459V28H49.6758ZM71.0479 28L77.0537 2.11621H82.3857L76.3652 28H71.0479ZM90.9551 28V2.21875H98.8652C100.184 2.21875 101.18 2.52148 101.854 3.12695C102.527 3.72266 102.977 4.5625 103.201 5.64648C103.436 6.7207 103.553 7.98535 103.553 9.44043C103.553 10.8467 103.372 11.9697 103.011 12.8096C102.659 13.6494 101.99 14.2305 101.004 14.5527C101.814 14.7188 102.381 15.124 102.703 15.7686C103.035 16.4033 103.201 17.2285 103.201 18.2441V28H98.1182V17.9072C98.1182 17.1553 97.9619 16.6914 97.6494 16.5156C97.3467 16.3301 96.8535 16.2373 96.1699 16.2373V28H90.9551ZM96.1992 11.7695H97.4443C98.1572 11.7695 98.5137 10.9932 98.5137 9.44043C98.5137 8.43457 98.4355 7.77539 98.2793 7.46289C98.123 7.15039 97.8301 6.99414 97.4004 6.99414H96.1992V11.7695ZM111.316 28.2344C109.754 28.2344 108.509 27.9414 107.581 27.3555C106.653 26.7695 105.989 25.9248 105.589 24.8213C105.188 23.7178 104.988 22.3896 104.988 20.8369V12.0039C104.988 9.96289 105.574 8.41992 106.746 7.375C107.918 6.32031 109.529 5.79297 111.58 5.79297C115.799 5.79297 117.908 7.86328 117.908 12.0039V13.6006C117.908 15.5342 117.889 16.833 117.85 17.4971H110.232V21.7451C110.232 22.1357 110.257 22.5215 110.306 22.9023C110.354 23.2734 110.462 23.5811 110.628 23.8252C110.804 24.0693 111.082 24.1914 111.463 24.1914C112.01 24.1914 112.352 23.957 112.488 23.4883C112.625 23.0098 112.693 22.3896 112.693 21.6279V19.5186H117.908V20.7637C117.908 22.4043 117.703 23.7812 117.293 24.8945C116.893 25.998 116.209 26.833 115.242 27.3994C114.285 27.9561 112.977 28.2344 111.316 28.2344ZM110.203 14.8896H112.693V11.9307C112.693 11.1396 112.596 10.5732 112.4 10.2314C112.205 9.87988 111.912 9.7041 111.521 9.7041C111.102 9.7041 110.774 9.87012 110.54 10.2021C110.315 10.5342 110.203 11.1104 110.203 11.9307V14.8896ZM125.73 31.8086C124.715 31.8086 123.841 31.7549 123.108 31.6475C122.386 31.5498 121.736 31.3691 121.16 31.1055C120.584 30.8418 120.008 30.4707 119.432 29.9922L121.204 26.96C122.483 27.7217 123.763 28.1025 125.042 28.1025C125.882 28.1025 126.507 27.834 126.917 27.2969C127.327 26.7598 127.532 26.0615 127.532 25.2021V23.0488C127.112 24.5527 125.994 25.3047 124.178 25.3047C123.133 25.3047 122.288 25.0557 121.644 24.5576C120.999 24.0596 120.53 23.3857 120.237 22.5361C119.944 21.6865 119.798 20.7393 119.798 19.6943V11.7988C119.798 10.6172 119.925 9.57715 120.179 8.67871C120.433 7.77051 120.877 7.0625 121.512 6.55469C122.146 6.04687 123.035 5.79297 124.178 5.79297C125.145 5.79297 125.896 6.03711 126.434 6.52539C126.98 7.01367 127.347 7.67285 127.532 8.50293V6.02734H132.879V24.8652C132.879 27.3555 132.303 29.1328 131.15 30.1973C130.008 31.2715 128.201 31.8086 125.73 31.8086ZM126.302 21.3496C127.122 21.3496 127.532 20.6074 127.532 19.123V11.6523C127.532 11.252 127.415 10.8418 127.181 10.4219C126.956 10.002 126.644 9.79199 126.243 9.79199C125.735 9.79199 125.418 9.98242 125.291 10.3633C125.164 10.7344 125.101 11.1641 125.101 11.6523V19.123C125.101 19.6504 125.164 20.1533 125.291 20.6318C125.428 21.1104 125.765 21.3496 126.302 21.3496ZM134.9 4.67969V0.314453H140.145V4.67969H134.9ZM134.9 28V6.02734H140.145V28H134.9ZM148.245 28.2344C143.909 28.2344 141.741 26.0371 141.741 21.6426V19.8994H147.015V22.4775C147.015 22.9756 147.112 23.3662 147.308 23.6494C147.503 23.9326 147.815 24.0742 148.245 24.0742C149.007 24.0742 149.388 23.5029 149.388 22.3604C149.388 21.4033 149.188 20.6904 148.787 20.2217C148.387 19.7432 147.898 19.2842 147.322 18.8447L144.524 16.6914C143.646 16.0078 142.977 15.2852 142.518 14.5234C142.059 13.7617 141.829 12.7021 141.829 11.3447C141.829 10.085 142.127 9.04492 142.723 8.22461C143.328 7.4043 144.124 6.79395 145.11 6.39355C146.106 5.99316 147.181 5.79297 148.333 5.79297C152.591 5.79297 154.72 7.91699 154.72 12.165V12.5752H149.3V11.7402C149.3 11.3008 149.222 10.876 149.065 10.4658C148.919 10.0557 148.626 9.85059 148.187 9.85059C147.444 9.85059 147.073 10.2412 147.073 11.0225C147.073 11.8135 147.386 12.4336 148.011 12.8828L151.263 15.2559C152.278 15.9883 153.128 16.8574 153.812 17.8633C154.505 18.8691 154.852 20.207 154.852 21.877C154.852 23.9473 154.261 25.5244 153.079 26.6084C151.907 27.6924 150.296 28.2344 148.245 28.2344ZM160.975 28.2344C159.559 28.2344 158.602 27.9365 158.104 27.3408C157.615 26.7354 157.371 25.8125 157.371 24.5723V10.876H155.892V6.87695H157.371V2.21875H162.469V6.87695H163.948V10.876H162.469V23.3418C162.469 23.7031 162.527 23.957 162.645 24.1035C162.762 24.25 162.986 24.3232 163.318 24.3232C163.553 24.3232 163.763 24.3037 163.948 24.2646V27.8389C163.831 27.8779 163.465 27.9512 162.85 28.0586C162.234 28.1758 161.609 28.2344 160.975 28.2344ZM171.785 28.2344C170.223 28.2344 168.978 27.9414 168.05 27.3555C167.122 26.7695 166.458 25.9248 166.058 24.8213C165.657 23.7178 165.457 22.3896 165.457 20.8369V12.0039C165.457 9.96289 166.043 8.41992 167.215 7.375C168.387 6.32031 169.998 5.79297 172.049 5.79297C176.268 5.79297 178.377 7.86328 178.377 12.0039V13.6006C178.377 15.5342 178.357 16.833 178.318 17.4971H170.701V21.7451C170.701 22.1357 170.726 22.5215 170.774 22.9023C170.823 23.2734 170.931 23.5811 171.097 23.8252C171.272 24.0693 171.551 24.1914 171.932 24.1914C172.479 24.1914 172.82 23.957 172.957 23.4883C173.094 23.0098 173.162 22.3896 173.162 21.6279V19.5186H178.377V20.7637C178.377 22.4043 178.172 23.7812 177.762 24.8945C177.361 25.998 176.678 26.833 175.711 27.3994C174.754 27.9561 173.445 28.2344 171.785 28.2344ZM170.672 14.8896H173.162V11.9307C173.162 11.1396 173.064 10.5732 172.869 10.2314C172.674 9.87988 172.381 9.7041 171.99 9.7041C171.57 9.7041 171.243 9.87012 171.009 10.2021C170.784 10.5342 170.672 11.1104 170.672 11.9307V14.8896ZM180.281 28V6.02734H185.613V8.47363C185.867 7.62402 186.316 6.95996 186.961 6.48145C187.605 6.00293 188.416 5.76367 189.393 5.76367V10.1436C188.963 10.1436 188.45 10.1924 187.854 10.29C187.259 10.3779 186.736 10.5049 186.287 10.6709C185.838 10.8271 185.613 11.0029 185.613 11.1982V28H180.281Z" fill="black"/>
</svg>
