<svg width="116" height="29" viewBox="0 0 116 29" fill="none" xmlns="http://www.w3.org/2000/svg">
<path d="M0.329102 28V2.21875H8.18066L10.3486 17.9365L12.502 2.21875H20.4268V28H15.71V9.42578L12.751 28H8.12207L4.9873 9.42578V28H0.329102ZM22.5947 4.67969V0.314453H27.8389V4.67969H22.5947ZM22.5947 28V6.02734H27.8389V28H22.5947ZM43.0439 28.2344C41.1787 28.2344 39.6748 27.6533 38.5322 26.4912C37.3994 25.3291 36.833 23.7031 36.833 21.6133V9.71875C36.833 7.21875 37.3262 5.30469 38.3125 3.97656C39.3086 2.64844 40.9248 1.98438 43.1611 1.98438C44.3818 1.98438 45.4658 2.20898 46.4131 2.6582C47.3701 3.10742 48.1221 3.78125 48.6689 4.67969C49.2158 5.56836 49.4893 6.69141 49.4893 8.04883V12.502H44.3623V8.69336C44.3623 7.92187 44.2646 7.4043 44.0693 7.14062C43.874 6.86719 43.5713 6.73047 43.1611 6.73047C42.6826 6.73047 42.3604 6.90625 42.1943 7.25781C42.0283 7.59961 41.9453 8.05859 41.9453 8.63477V21.54C41.9453 22.2529 42.0479 22.7559 42.2529 23.0488C42.4678 23.3418 42.7705 23.4883 43.1611 23.4883C43.6006 23.4883 43.9082 23.3076 44.084 22.9463C44.2695 22.585 44.3623 22.1162 44.3623 21.54V16.8965H49.5479V21.7744C49.5479 24.04 48.9766 25.6855 47.834 26.7109C46.6914 27.7266 45.0947 28.2344 43.0439 28.2344ZM55.1875 28.2344C53.9668 28.2344 53.0342 27.9512 52.3896 27.3848C51.7549 26.8184 51.3203 26.042 51.0859 25.0557C50.8516 24.0693 50.7344 22.9512 50.7344 21.7012C50.7344 20.3633 50.8662 19.2695 51.1299 18.4199C51.3936 17.5605 51.8428 16.8574 52.4775 16.3105C53.1221 15.7637 54.0059 15.2998 55.1289 14.9189L58.3809 13.8057V11.5498C58.3809 10.3682 57.9951 9.77734 57.2236 9.77734C56.5205 9.77734 56.1689 10.2559 56.1689 11.2129V12.5312H51.0713C51.0615 12.4531 51.0566 12.3555 51.0566 12.2383C51.0566 12.1113 51.0566 11.9697 51.0566 11.8135C51.0566 9.62598 51.5693 8.07812 52.5947 7.16992C53.6299 6.25195 55.2656 5.79297 57.502 5.79297C58.6738 5.79297 59.7236 6.00293 60.6514 6.42285C61.5791 6.83301 62.3115 7.44336 62.8486 8.25391C63.3955 9.06445 63.6689 10.0654 63.6689 11.2568V28H58.4541V25.3926C58.2002 26.3105 57.7803 27.0137 57.1943 27.502C56.6084 27.9902 55.9395 28.2344 55.1875 28.2344ZM57.2529 24.1621C57.6826 24.1621 57.9756 23.9814 58.1318 23.6201C58.2881 23.2588 58.3662 22.8682 58.3662 22.4482V16.3252C57.6436 16.6182 57.082 16.9893 56.6816 17.4385C56.2812 17.8779 56.0811 18.5273 56.0811 19.3867V22.2139C56.0811 23.5127 56.4717 24.1621 57.2529 24.1621ZM65.6904 28V6.02734H71.0225V8.47363C71.2764 7.62402 71.7256 6.95996 72.3701 6.48145C73.0146 6.00293 73.8252 5.76367 74.8018 5.76367V10.1436C74.3721 10.1436 73.8594 10.1924 73.2637 10.29C72.668 10.3779 72.1455 10.5049 71.6963 10.6709C71.2471 10.8271 71.0225 11.0029 71.0225 11.1982V28H65.6904ZM76.0908 28V6.02734H81.4229V8.47363C81.6768 7.62402 82.126 6.95996 82.7705 6.48145C83.415 6.00293 84.2256 5.76367 85.2021 5.76367V10.1436C84.7725 10.1436 84.2598 10.1924 83.6641 10.29C83.0684 10.3779 82.5459 10.5049 82.0967 10.6709C81.6475 10.8271 81.4229 11.0029 81.4229 11.1982V28H76.0908ZM86.4619 4.67969V0.314453H91.7061V4.67969H86.4619ZM86.4619 28V6.02734H91.7061V28H86.4619ZM98.2979 28.2344C96.8818 28.2344 95.9248 27.9365 95.4268 27.3408C94.9385 26.7354 94.6943 25.8125 94.6943 24.5723V10.876H93.2148V6.87695H94.6943V2.21875H99.792V6.87695H101.271V10.876H99.792V23.3418C99.792 23.7031 99.8506 23.957 99.9678 24.1035C100.085 24.25 100.31 24.3232 100.642 24.3232C100.876 24.3232 101.086 24.3037 101.271 24.2646V27.8389C101.154 27.8779 100.788 27.9512 100.173 28.0586C99.5576 28.1758 98.9326 28.2344 98.2979 28.2344ZM109.343 28.2344C104.968 28.2344 102.78 25.9639 102.78 21.4229V12.6045C102.78 10.5342 103.361 8.88379 104.523 7.65332C105.686 6.41309 107.292 5.79297 109.343 5.79297C111.403 5.79297 113.015 6.41309 114.177 7.65332C115.339 8.88379 115.92 10.5342 115.92 12.6045V21.4229C115.92 25.9639 113.728 28.2344 109.343 28.2344ZM109.343 24.1914C109.782 24.1914 110.095 24.0352 110.28 23.7227C110.476 23.4004 110.573 22.9951 110.573 22.5068V11.7695C110.573 10.4902 110.163 9.85059 109.343 9.85059C108.522 9.85059 108.112 10.4902 108.112 11.7695V22.5068C108.112 22.9951 108.205 23.4004 108.391 23.7227C108.586 24.0352 108.903 24.1914 109.343 24.1914Z" fill="black"/>
</svg>
