<svg width="122" height="27" viewBox="0 0 122 27" fill="none" xmlns="http://www.w3.org/2000/svg">
<path d="M0.412109 26V0.21875H7.22363C8.64941 0.21875 9.77734 0.536133 10.6074 1.1709C11.4473 1.80566 12.0479 2.70898 12.4092 3.88086C12.7705 5.05273 12.9512 6.44922 12.9512 8.07031C12.9512 9.63281 12.7998 10.9951 12.4971 12.1572C12.1943 13.3096 11.6523 14.2031 10.8711 14.8379C10.0996 15.4727 9.00098 15.79 7.5752 15.79H5.48047V26H0.412109ZM5.48047 11.1611H5.77344C6.73047 11.1611 7.31641 10.8926 7.53125 10.3555C7.74609 9.81836 7.85352 9.02734 7.85352 7.98242C7.85352 7.00586 7.74609 6.25391 7.53125 5.72656C7.32617 5.18945 6.83301 4.9209 6.05176 4.9209H5.48047V11.1611ZM14.5039 26V4.02734H19.8359V6.47363C20.0898 5.62402 20.5391 4.95996 21.1836 4.48145C21.8281 4.00293 22.6387 3.76367 23.6152 3.76367V8.14355C23.1855 8.14355 22.6729 8.19238 22.0771 8.29004C21.4814 8.37793 20.959 8.50488 20.5098 8.6709C20.0605 8.82715 19.8359 9.00293 19.8359 9.19824V26H14.5039ZM31.291 26.2344C26.916 26.2344 24.7285 23.9639 24.7285 19.4229V10.6045C24.7285 8.53418 25.3096 6.88379 26.4717 5.65332C27.6338 4.41309 29.2402 3.79297 31.291 3.79297C33.3516 3.79297 34.9629 4.41309 36.125 5.65332C37.2871 6.88379 37.8682 8.53418 37.8682 10.6045V19.4229C37.8682 23.9639 35.6758 26.2344 31.291 26.2344ZM31.291 22.1914C31.7305 22.1914 32.043 22.0352 32.2285 21.7227C32.4238 21.4004 32.5215 20.9951 32.5215 20.5068V9.76953C32.5215 8.49023 32.1113 7.85059 31.291 7.85059C30.4707 7.85059 30.0605 8.49023 30.0605 9.76953V20.5068C30.0605 20.9951 30.1533 21.4004 30.3389 21.7227C30.5342 22.0352 30.8516 22.1914 31.291 22.1914ZM44.1377 26.2344C43.1221 26.2344 42.3164 26.0488 41.7207 25.6777C41.125 25.3066 40.6807 24.7939 40.3877 24.1396C40.0947 23.4854 39.8994 22.7188 39.8018 21.8398C39.7139 20.9609 39.6699 20.0186 39.6699 19.0127V9.46191C39.6699 7.77246 39.9678 6.40527 40.5635 5.36035C41.1689 4.31543 42.1895 3.79297 43.625 3.79297C44.6895 3.79297 45.5049 4.02246 46.0713 4.48145C46.6475 4.93066 47.0918 5.56055 47.4043 6.37109V0.21875H52.7363V26H47.4043V23.6709C47.1113 24.4619 46.7207 25.0869 46.2324 25.5459C45.7539 26.0049 45.0557 26.2344 44.1377 26.2344ZM46.1445 22.1328C46.6426 22.1328 46.9746 21.9326 47.1406 21.5322C47.3164 21.1318 47.4043 20.4141 47.4043 19.3789V10.1357C47.4043 9.61816 47.3262 9.11035 47.1699 8.6123C47.0234 8.10449 46.6914 7.85059 46.1738 7.85059C45.6074 7.85059 45.251 8.08984 45.1045 8.56836C44.958 9.04688 44.8848 9.56934 44.8848 10.1357V19.3789C44.8848 21.2148 45.3047 22.1328 46.1445 22.1328ZM58.9912 26.2344C57.8193 26.2344 56.9209 25.9902 56.2959 25.502C55.6807 25.0137 55.2607 24.335 55.0361 23.4658C54.8115 22.5869 54.6992 21.5615 54.6992 20.3896V4.02734H59.9727V19.7744C59.9727 20.6533 60.041 21.2686 60.1777 21.6201C60.3145 21.9619 60.6367 22.1328 61.1445 22.1328C61.6914 22.1328 62.0332 21.8887 62.1699 21.4004C62.3164 20.9121 62.3896 20.2822 62.3896 19.5107V4.02734H67.6191V26H62.375V23.6562C62.043 24.4961 61.6426 25.1357 61.1738 25.5752C60.7148 26.0146 59.9873 26.2344 58.9912 26.2344ZM76.335 26.2344C73.874 26.2344 72.126 25.6045 71.0908 24.3447C70.0654 23.085 69.5527 21.2344 69.5527 18.793V12.0254C69.5527 10.1895 69.748 8.66113 70.1387 7.44043C70.5293 6.21973 71.2129 5.30664 72.1895 4.70117C73.166 4.0957 74.5234 3.79297 76.2617 3.79297C77.4727 3.79297 78.5566 4.00781 79.5137 4.4375C80.4805 4.86719 81.2422 5.49707 81.7988 6.32715C82.3555 7.15723 82.6338 8.17285 82.6338 9.37402V12.7285H77.2871V9.65234C77.2871 9.14453 77.2139 8.71973 77.0674 8.37793C76.9209 8.02637 76.6035 7.85059 76.1152 7.85059C75.2559 7.85059 74.8262 8.46094 74.8262 9.68164V20.3311C74.8262 20.7803 74.9238 21.1953 75.1191 21.5762C75.3145 21.9473 75.6367 22.1328 76.0859 22.1328C76.5449 22.1328 76.8623 21.9521 77.0381 21.5908C77.2236 21.2197 77.3164 20.79 77.3164 20.3018V16.6104H82.6338V20.4482C82.6338 21.6592 82.3604 22.6992 81.8135 23.5684C81.2764 24.4277 80.5342 25.0869 79.5869 25.5459C78.6396 26.0049 77.5557 26.2344 76.335 26.2344ZM88.9766 26.2344C87.5605 26.2344 86.6035 25.9365 86.1055 25.3408C85.6172 24.7354 85.373 23.8125 85.373 22.5723V8.87598H83.8936V4.87695H85.373V0.21875H90.4707V4.87695H91.9502V8.87598H90.4707V21.3418C90.4707 21.7031 90.5293 21.957 90.6465 22.1035C90.7637 22.25 90.9883 22.3232 91.3203 22.3232C91.5547 22.3232 91.7646 22.3037 91.9502 22.2646V25.8389C91.833 25.8779 91.4668 25.9512 90.8516 26.0586C90.2363 26.1758 89.6113 26.2344 88.9766 26.2344ZM100.021 26.2344C95.6465 26.2344 93.459 23.9639 93.459 19.4229V10.6045C93.459 8.53418 94.04 6.88379 95.2021 5.65332C96.3643 4.41309 97.9707 3.79297 100.021 3.79297C102.082 3.79297 103.693 4.41309 104.855 5.65332C106.018 6.88379 106.599 8.53418 106.599 10.6045V19.4229C106.599 23.9639 104.406 26.2344 100.021 26.2344ZM100.021 22.1914C100.461 22.1914 100.773 22.0352 100.959 21.7227C101.154 21.4004 101.252 20.9951 101.252 20.5068V9.76953C101.252 8.49023 100.842 7.85059 100.021 7.85059C99.2012 7.85059 98.791 8.49023 98.791 9.76953V20.5068C98.791 20.9951 98.8838 21.4004 99.0693 21.7227C99.2646 22.0352 99.582 22.1914 100.021 22.1914ZM114.567 26.2344C110.231 26.2344 108.063 24.0371 108.063 19.6426V17.8994H113.337V20.4775C113.337 20.9756 113.435 21.3662 113.63 21.6494C113.825 21.9326 114.138 22.0742 114.567 22.0742C115.329 22.0742 115.71 21.5029 115.71 20.3604C115.71 19.4033 115.51 18.6904 115.109 18.2217C114.709 17.7432 114.221 17.2842 113.645 16.8447L110.847 14.6914C109.968 14.0078 109.299 13.2852 108.84 12.5234C108.381 11.7617 108.151 10.7021 108.151 9.34473C108.151 8.08496 108.449 7.04492 109.045 6.22461C109.65 5.4043 110.446 4.79395 111.433 4.39355C112.429 3.99316 113.503 3.79297 114.655 3.79297C118.913 3.79297 121.042 5.91699 121.042 10.165V10.5752H115.622V9.74023C115.622 9.30078 115.544 8.87598 115.388 8.46582C115.241 8.05566 114.948 7.85059 114.509 7.85059C113.767 7.85059 113.396 8.24121 113.396 9.02246C113.396 9.81348 113.708 10.4336 114.333 10.8828L117.585 13.2559C118.601 13.9883 119.45 14.8574 120.134 15.8633C120.827 16.8691 121.174 18.207 121.174 19.877C121.174 21.9473 120.583 23.5244 119.401 24.6084C118.229 25.6924 116.618 26.2344 114.567 26.2344Z" fill="black"/>
</svg>
