<svg width="312" height="52" viewBox="0 0 312 52" fill="none" xmlns="http://www.w3.org/2000/svg">
<g filter="url(#filter0_d_47_59)">
<path d="M17 0C9.83248 0 4 5.83248 4 13V31C4 38.1675 9.83248 44 17 44H35C42.1675 44 48 38.1675 48 31V13C48 5.83248 42.1675 0 35 0H17ZM17 2H35C41.0865 2 46 6.91352 46 13V31C46 37.0865 41.0865 42 35 42H17C10.9135 42 6 37.0865 6 31V13C6 6.91352 10.9135 2 17 2ZM38 8C37.4696 8 36.9609 8.21071 36.5858 8.58579C36.2107 8.96086 36 9.46957 36 10C36 10.5304 36.2107 11.0391 36.5858 11.4142C36.9609 11.7893 37.4696 12 38 12C38.5304 12 39.0391 11.7893 39.4142 11.4142C39.7893 11.0391 40 10.5304 40 10C40 9.46957 39.7893 8.96086 39.4142 8.58579C39.0391 8.21071 38.5304 8 38 8ZM26 11C19.9367 11 15 15.9367 15 22C15 28.0633 19.9367 33 26 33C32.0633 33 37 28.0633 37 22C37 15.9367 32.0633 11 26 11ZM26 13C30.9824 13 35 17.0176 35 22C35 26.9824 30.9824 31 26 31C21.0176 31 17 26.9824 17 22C17 17.0176 21.0176 13 26 13Z" fill="black"/>
</g>
<g filter="url(#filter1_d_47_59)">
<path d="M61.7031 37.2344C60.2871 37.2344 59.3301 36.9365 58.832 36.3408C58.3438 35.7354 58.0996 34.8125 58.0996 33.5723V19.876H56.6201V15.877H58.0996V11.2188H63.1973V15.877H64.6768V19.876H63.1973V32.3418C63.1973 32.7031 63.2559 32.957 63.373 33.1035C63.4902 33.25 63.7148 33.3232 64.0469 33.3232C64.2812 33.3232 64.4912 33.3037 64.6768 33.2646V36.8389C64.5596 36.8779 64.1934 36.9512 63.5781 37.0586C62.9629 37.1758 62.3379 37.2344 61.7031 37.2344ZM66.3613 37V11.2188H71.752V17.21C72.0352 16.3896 72.4697 15.7842 73.0557 15.3936C73.6416 14.9932 74.3252 14.793 75.1064 14.793C76.6299 14.793 77.7383 15.2715 78.4316 16.2285C79.125 17.1855 79.4717 18.4697 79.4717 20.0811V37H74.1689V20.418C74.1689 19.9395 74.0664 19.5488 73.8613 19.2461C73.666 18.9434 73.3535 18.792 72.9238 18.792C72.5625 18.792 72.2744 18.9482 72.0596 19.2607C71.8545 19.5732 71.752 19.9443 71.752 20.374V37H66.3613ZM87.6895 37.2344C86.127 37.2344 84.8818 36.9414 83.9541 36.3555C83.0264 35.7695 82.3623 34.9248 81.9619 33.8213C81.5615 32.7178 81.3613 31.3896 81.3613 29.8369V21.0039C81.3613 18.9629 81.9473 17.4199 83.1191 16.375C84.291 15.3203 85.9023 14.793 87.9531 14.793C92.1719 14.793 94.2812 16.8633 94.2812 21.0039V22.6006C94.2812 24.5342 94.2617 25.833 94.2227 26.4971H86.6055V30.7451C86.6055 31.1357 86.6299 31.5215 86.6787 31.9023C86.7275 32.2734 86.835 32.5811 87.001 32.8252C87.1768 33.0693 87.4551 33.1914 87.8359 33.1914C88.3828 33.1914 88.7246 32.957 88.8613 32.4883C88.998 32.0098 89.0664 31.3896 89.0664 30.6279V28.5186H94.2812V29.7637C94.2812 31.4043 94.0762 32.7812 93.666 33.8945C93.2656 34.998 92.582 35.833 91.6152 36.3994C90.6582 36.9561 89.3496 37.2344 87.6895 37.2344ZM86.5762 23.8896H89.0664V20.9307C89.0664 20.1396 88.9688 19.5732 88.7734 19.2314C88.5781 18.8799 88.2852 18.7041 87.8945 18.7041C87.4746 18.7041 87.1475 18.8701 86.9131 19.2021C86.6885 19.5342 86.5762 20.1104 86.5762 20.9307V23.8896ZM102.572 37.2344C98.1973 37.2344 96.0098 34.9639 96.0098 30.4229V21.6045C96.0098 19.5342 96.5908 17.8838 97.7529 16.6533C98.915 15.4131 100.521 14.793 102.572 14.793C104.633 14.793 106.244 15.4131 107.406 16.6533C108.568 17.8838 109.149 19.5342 109.149 21.6045V30.4229C109.149 34.9639 106.957 37.2344 102.572 37.2344ZM102.572 33.1914C103.012 33.1914 103.324 33.0352 103.51 32.7227C103.705 32.4004 103.803 31.9951 103.803 31.5068V20.7695C103.803 19.4902 103.393 18.8506 102.572 18.8506C101.752 18.8506 101.342 19.4902 101.342 20.7695V31.5068C101.342 31.9951 101.435 32.4004 101.62 32.7227C101.815 33.0352 102.133 33.1914 102.572 33.1914ZM115.419 37.2344C114.403 37.2344 113.598 37.0488 113.002 36.6777C112.406 36.3066 111.962 35.7939 111.669 35.1396C111.376 34.4854 111.181 33.7188 111.083 32.8398C110.995 31.9609 110.951 31.0186 110.951 30.0127V20.4619C110.951 18.7725 111.249 17.4053 111.845 16.3604C112.45 15.3154 113.471 14.793 114.906 14.793C115.971 14.793 116.786 15.0225 117.353 15.4814C117.929 15.9307 118.373 16.5605 118.686 17.3711V11.2188H124.018V37H118.686V34.6709C118.393 35.4619 118.002 36.0869 117.514 36.5459C117.035 37.0049 116.337 37.2344 115.419 37.2344ZM117.426 33.1328C117.924 33.1328 118.256 32.9326 118.422 32.5322C118.598 32.1318 118.686 31.4141 118.686 30.3789V21.1357C118.686 20.6182 118.607 20.1104 118.451 19.6123C118.305 19.1045 117.973 18.8506 117.455 18.8506C116.889 18.8506 116.532 19.0898 116.386 19.5684C116.239 20.0469 116.166 20.5693 116.166 21.1357V30.3789C116.166 32.2148 116.586 33.1328 117.426 33.1328ZM132.426 37.2344C128.051 37.2344 125.863 34.9639 125.863 30.4229V21.6045C125.863 19.5342 126.444 17.8838 127.606 16.6533C128.769 15.4131 130.375 14.793 132.426 14.793C134.486 14.793 136.098 15.4131 137.26 16.6533C138.422 17.8838 139.003 19.5342 139.003 21.6045V30.4229C139.003 34.9639 136.811 37.2344 132.426 37.2344ZM132.426 33.1914C132.865 33.1914 133.178 33.0352 133.363 32.7227C133.559 32.4004 133.656 31.9951 133.656 31.5068V20.7695C133.656 19.4902 133.246 18.8506 132.426 18.8506C131.605 18.8506 131.195 19.4902 131.195 20.7695V31.5068C131.195 31.9951 131.288 32.4004 131.474 32.7227C131.669 33.0352 131.986 33.1914 132.426 33.1914ZM140.951 37V15.0273H146.283V17.4736C146.537 16.624 146.986 15.96 147.631 15.4814C148.275 15.0029 149.086 14.7637 150.062 14.7637V19.1436C149.633 19.1436 149.12 19.1924 148.524 19.29C147.929 19.3779 147.406 19.5049 146.957 19.6709C146.508 19.8271 146.283 20.0029 146.283 20.1982V37H140.951ZM157.738 37.2344C153.363 37.2344 151.176 34.9639 151.176 30.4229V21.6045C151.176 19.5342 151.757 17.8838 152.919 16.6533C154.081 15.4131 155.688 14.793 157.738 14.793C159.799 14.793 161.41 15.4131 162.572 16.6533C163.734 17.8838 164.315 19.5342 164.315 21.6045V30.4229C164.315 34.9639 162.123 37.2344 157.738 37.2344ZM157.738 33.1914C158.178 33.1914 158.49 33.0352 158.676 32.7227C158.871 32.4004 158.969 31.9951 158.969 31.5068V20.7695C158.969 19.4902 158.559 18.8506 157.738 18.8506C156.918 18.8506 156.508 19.4902 156.508 20.7695V31.5068C156.508 31.9951 156.601 32.4004 156.786 32.7227C156.981 33.0352 157.299 33.1914 157.738 33.1914ZM166.015 36.9854V32.6201H171.259V36.9854H166.015ZM177.44 37.2344C176.425 37.2344 175.619 37.0488 175.023 36.6777C174.428 36.3066 173.983 35.7939 173.69 35.1396C173.397 34.4854 173.202 33.7188 173.104 32.8398C173.017 31.9609 172.973 31.0186 172.973 30.0127V20.4619C172.973 18.7725 173.271 17.4053 173.866 16.3604C174.472 15.3154 175.492 14.793 176.928 14.793C177.992 14.793 178.808 15.0225 179.374 15.4814C179.95 15.9307 180.395 16.5605 180.707 17.3711V11.2188H186.039V37H180.707V34.6709C180.414 35.4619 180.023 36.0869 179.535 36.5459C179.057 37.0049 178.358 37.2344 177.44 37.2344ZM179.447 33.1328C179.945 33.1328 180.277 32.9326 180.443 32.5322C180.619 32.1318 180.707 31.4141 180.707 30.3789V21.1357C180.707 20.6182 180.629 20.1104 180.473 19.6123C180.326 19.1045 179.994 18.8506 179.477 18.8506C178.91 18.8506 178.554 19.0898 178.407 19.5684C178.261 20.0469 178.188 20.5693 178.188 21.1357V30.3789C178.188 32.2148 178.607 33.1328 179.447 33.1328ZM188.061 37V15.0273H193.393V17.4736C193.646 16.624 194.096 15.96 194.74 15.4814C195.385 15.0029 196.195 14.7637 197.172 14.7637V19.1436C196.742 19.1436 196.229 19.1924 195.634 19.29C195.038 19.3779 194.516 19.5049 194.066 19.6709C193.617 19.8271 193.393 20.0029 193.393 20.1982V37H188.061ZM202.694 37.2344C201.522 37.2344 200.624 36.9902 199.999 36.502C199.384 36.0137 198.964 35.335 198.739 34.4658C198.515 33.5869 198.402 32.5615 198.402 31.3896V15.0273H203.676V30.7744C203.676 31.6533 203.744 32.2686 203.881 32.6201C204.018 32.9619 204.34 33.1328 204.848 33.1328C205.395 33.1328 205.736 32.8887 205.873 32.4004C206.02 31.9121 206.093 31.2822 206.093 30.5107V15.0273H211.322V37H206.078V34.6562C205.746 35.4961 205.346 36.1357 204.877 36.5752C204.418 37.0146 203.69 37.2344 202.694 37.2344ZM219.35 40.8086C218.334 40.8086 217.46 40.7549 216.728 40.6475C216.005 40.5498 215.355 40.3691 214.779 40.1055C214.203 39.8418 213.627 39.4707 213.051 38.9922L214.823 35.96C216.103 36.7217 217.382 37.1025 218.661 37.1025C219.501 37.1025 220.126 36.834 220.536 36.2969C220.946 35.7598 221.151 35.0615 221.151 34.2021V32.0488C220.731 33.5527 219.613 34.3047 217.797 34.3047C216.752 34.3047 215.907 34.0557 215.263 33.5576C214.618 33.0596 214.149 32.3857 213.856 31.5361C213.563 30.6865 213.417 29.7393 213.417 28.6943V20.7988C213.417 19.6172 213.544 18.5771 213.798 17.6787C214.052 16.7705 214.496 16.0625 215.131 15.5547C215.766 15.0469 216.654 14.793 217.797 14.793C218.764 14.793 219.516 15.0371 220.053 15.5254C220.6 16.0137 220.966 16.6729 221.151 17.5029V15.0273H226.498V33.8652C226.498 36.3555 225.922 38.1328 224.77 39.1973C223.627 40.2715 221.82 40.8086 219.35 40.8086ZM219.921 30.3496C220.741 30.3496 221.151 29.6074 221.151 28.123V20.6523C221.151 20.252 221.034 19.8418 220.8 19.4219C220.575 19.002 220.263 18.792 219.862 18.792C219.354 18.792 219.037 18.9824 218.91 19.3633C218.783 19.7344 218.72 20.1641 218.72 20.6523V28.123C218.72 28.6504 218.783 29.1533 218.91 29.6318C219.047 30.1104 219.384 30.3496 219.921 30.3496ZM234.569 37.2344C230.233 37.2344 228.065 35.0371 228.065 30.6426V28.8994H233.339V31.4775C233.339 31.9756 233.437 32.3662 233.632 32.6494C233.827 32.9326 234.14 33.0742 234.569 33.0742C235.331 33.0742 235.712 32.5029 235.712 31.3604C235.712 30.4033 235.512 29.6904 235.111 29.2217C234.711 28.7432 234.223 28.2842 233.646 27.8447L230.849 25.6914C229.97 25.0078 229.301 24.2852 228.842 23.5234C228.383 22.7617 228.153 21.7021 228.153 20.3447C228.153 19.085 228.451 18.0449 229.047 17.2246C229.652 16.4043 230.448 15.7939 231.435 15.3936C232.431 14.9932 233.505 14.793 234.657 14.793C238.915 14.793 241.044 16.917 241.044 21.165V21.5752H235.624V20.7402C235.624 20.3008 235.546 19.876 235.39 19.4658C235.243 19.0557 234.95 18.8506 234.511 18.8506C233.769 18.8506 233.397 19.2412 233.397 20.0225C233.397 20.8135 233.71 21.4336 234.335 21.8828L237.587 24.2559C238.603 24.9883 239.452 25.8574 240.136 26.8633C240.829 27.8691 241.176 29.207 241.176 30.877C241.176 32.9473 240.585 34.5244 239.403 35.6084C238.231 36.6924 236.62 37.2344 234.569 37.2344ZM247.299 37.2344C245.883 37.2344 244.926 36.9365 244.428 36.3408C243.939 35.7354 243.695 34.8125 243.695 33.5723V19.876H242.216V15.877H243.695V11.2188H248.793V15.877H250.272V19.876H248.793V32.3418C248.793 32.7031 248.852 32.957 248.969 33.1035C249.086 33.25 249.311 33.3232 249.643 33.3232C249.877 33.3232 250.087 33.3037 250.272 33.2646V36.8389C250.155 36.8779 249.789 36.9512 249.174 37.0586C248.559 37.1758 247.934 37.2344 247.299 37.2344ZM258.344 37.2344C253.969 37.2344 251.781 34.9639 251.781 30.4229V21.6045C251.781 19.5342 252.362 17.8838 253.524 16.6533C254.687 15.4131 256.293 14.793 258.344 14.793C260.404 14.793 262.016 15.4131 263.178 16.6533C264.34 17.8838 264.921 19.5342 264.921 21.6045V30.4229C264.921 34.9639 262.729 37.2344 258.344 37.2344ZM258.344 33.1914C258.783 33.1914 259.096 33.0352 259.281 32.7227C259.477 32.4004 259.574 31.9951 259.574 31.5068V20.7695C259.574 19.4902 259.164 18.8506 258.344 18.8506C257.523 18.8506 257.113 19.4902 257.113 20.7695V31.5068C257.113 31.9951 257.206 32.4004 257.392 32.7227C257.587 33.0352 257.904 33.1914 258.344 33.1914ZM266.869 37V15.0273H272.201V17.4736C272.455 16.624 272.904 15.96 273.549 15.4814C274.193 15.0029 275.004 14.7637 275.98 14.7637V19.1436C275.551 19.1436 275.038 19.1924 274.442 19.29C273.847 19.3779 273.324 19.5049 272.875 19.6709C272.426 19.8271 272.201 20.0029 272.201 20.1982V37H266.869ZM283.422 37.2344C281.859 37.2344 280.614 36.9414 279.687 36.3555C278.759 35.7695 278.095 34.9248 277.694 33.8213C277.294 32.7178 277.094 31.3896 277.094 29.8369V21.0039C277.094 18.9629 277.68 17.4199 278.852 16.375C280.023 15.3203 281.635 14.793 283.686 14.793C287.904 14.793 290.014 16.8633 290.014 21.0039V22.6006C290.014 24.5342 289.994 25.833 289.955 26.4971H282.338V30.7451C282.338 31.1357 282.362 31.5215 282.411 31.9023C282.46 32.2734 282.567 32.5811 282.733 32.8252C282.909 33.0693 283.188 33.1914 283.568 33.1914C284.115 33.1914 284.457 32.957 284.594 32.4883C284.73 32.0098 284.799 31.3896 284.799 30.6279V28.5186H290.014V29.7637C290.014 31.4043 289.809 32.7812 289.398 33.8945C288.998 34.998 288.314 35.833 287.348 36.3994C286.391 36.9561 285.082 37.2344 283.422 37.2344ZM282.309 23.8896H284.799V20.9307C284.799 20.1396 284.701 19.5732 284.506 19.2314C284.311 18.8799 284.018 18.7041 283.627 18.7041C283.207 18.7041 282.88 18.8701 282.646 19.2021C282.421 19.5342 282.309 20.1104 282.309 20.9307V23.8896Z" fill="black"/>
<path d="M58.832 36.3408L58.4428 36.6547L58.4484 36.6615L58.832 36.3408ZM58.0996 19.876H58.5996V19.376H58.0996V19.876ZM56.6201 19.876H56.1201V20.376H56.6201V19.876ZM56.6201 15.877V15.377H56.1201V15.877H56.6201ZM58.0996 15.877V16.377H58.5996V15.877H58.0996ZM58.0996 11.2188V10.7188H57.5996V11.2188H58.0996ZM63.1973 11.2188H63.6973V10.7188H63.1973V11.2188ZM63.1973 15.877H62.6973V16.377H63.1973V15.877ZM64.6768 15.877H65.1768V15.377H64.6768V15.877ZM64.6768 19.876V20.376H65.1768V19.876H64.6768ZM63.1973 19.876V19.376H62.6973V19.876H63.1973ZM64.6768 33.2646H65.1768V32.6484L64.5738 32.7754L64.6768 33.2646ZM64.6768 36.8389L64.8349 37.3132L65.1768 37.1992V36.8389H64.6768ZM63.5781 37.0586L63.4921 36.566L63.4846 36.5674L63.5781 37.0586ZM61.7031 37.2344V36.7344C60.3214 36.7344 59.5642 36.437 59.2156 36.0201L58.832 36.3408L58.4484 36.6615C59.096 37.4361 60.2528 37.7344 61.7031 37.7344V37.2344ZM58.832 36.3408L59.2212 36.0269C58.8363 35.5497 58.5996 34.7618 58.5996 33.5723H58.0996H57.5996C57.5996 34.8632 57.8512 35.921 58.4428 36.6547L58.832 36.3408ZM58.0996 33.5723H58.5996V19.876H58.0996H57.5996V33.5723H58.0996ZM58.0996 19.876V19.376H56.6201V19.876V20.376H58.0996V19.876ZM56.6201 19.876H57.1201V15.877H56.6201H56.1201V19.876H56.6201ZM56.6201 15.877V16.377H58.0996V15.877V15.377H56.6201V15.877ZM58.0996 15.877H58.5996V11.2188H58.0996H57.5996V15.877H58.0996ZM58.0996 11.2188V11.7188H63.1973V11.2188V10.7188H58.0996V11.2188ZM63.1973 11.2188H62.6973V15.877H63.1973H63.6973V11.2188H63.1973ZM63.1973 15.877V16.377H64.6768V15.877V15.377H63.1973V15.877ZM64.6768 15.877H64.1768V19.876H64.6768H65.1768V15.877H64.6768ZM64.6768 19.876V19.376H63.1973V19.876V20.376H64.6768V19.876ZM63.1973 19.876H62.6973V32.3418H63.1973H63.6973V19.876H63.1973ZM63.1973 32.3418H62.6973C62.6973 32.7264 62.7535 33.1295 62.9826 33.4159L63.373 33.1035L63.7635 32.7912C63.7663 32.7947 63.747 32.7714 63.7284 32.6908C63.7102 32.6118 63.6973 32.498 63.6973 32.3418H63.1973ZM63.373 33.1035L62.9826 33.4159C63.2474 33.7469 63.6745 33.8232 64.0469 33.8232V33.3232V32.8232C63.9139 32.8232 63.8309 32.8081 63.7844 32.7929C63.7408 32.7787 63.7471 32.7707 63.7635 32.7912L63.373 33.1035ZM64.0469 33.3232V33.8232C64.3081 33.8232 64.5535 33.8016 64.7798 33.7539L64.6768 33.2646L64.5738 32.7754C64.4289 32.8059 64.2544 32.8232 64.0469 32.8232V33.3232ZM64.6768 33.2646H64.1768V36.8389H64.6768H65.1768V33.2646H64.6768ZM64.6768 36.8389L64.5186 36.3645C64.5187 36.3645 64.5181 36.3647 64.5168 36.3651C64.5156 36.3655 64.5139 36.366 64.5116 36.3667C64.5071 36.368 64.5009 36.3697 64.4929 36.3718C64.4768 36.3761 64.4558 36.3813 64.429 36.3875C64.3754 36.4 64.3049 36.4151 64.2162 36.4328C64.0388 36.4683 63.798 36.5126 63.4921 36.566L63.5781 37.0586L63.6641 37.5511C64.26 37.4471 64.6731 37.3671 64.8349 37.3132L64.6768 36.8389ZM63.5781 37.0586L63.4846 36.5674C62.9006 36.6787 62.3069 36.7344 61.7031 36.7344V37.2344V37.7344C62.3689 37.7344 63.0252 37.6729 63.6717 37.5498L63.5781 37.0586ZM66.3613 37H65.8613V37.5H66.3613V37ZM66.3613 11.2188V10.7188H65.8613V11.2188H66.3613ZM71.752 11.2188H72.252V10.7188H71.752V11.2188ZM71.752 17.21H71.252L72.2246 17.3731L71.752 17.21ZM73.0557 15.3936L73.333 15.8096L73.3378 15.8064L73.0557 15.3936ZM79.4717 37V37.5H79.9717V37H79.4717ZM74.1689 37H73.6689V37.5H74.1689V37ZM73.8613 19.2461L73.4411 19.5172L73.4474 19.5265L73.8613 19.2461ZM72.0596 19.2607L71.6475 18.9774L71.6415 18.9864L72.0596 19.2607ZM71.752 37V37.5H72.252V37H71.752ZM66.3613 37H66.8613V11.2188H66.3613H65.8613V37H66.3613ZM66.3613 11.2188V11.7188H71.752V11.2188V10.7188H66.3613V11.2188ZM71.752 11.2188H71.252V17.21H71.752H72.252V11.2188H71.752ZM71.752 17.21L72.2246 17.3731C72.4806 16.6317 72.8575 16.1266 73.333 15.8096L73.0557 15.3936L72.7783 14.9775C72.0819 15.4418 71.5897 16.1476 71.2793 17.0468L71.752 17.21ZM73.0557 15.3936L73.3378 15.8064C73.8322 15.4685 74.4153 15.293 75.1064 15.293V14.793V14.293C74.2351 14.293 73.451 14.5178 72.7736 14.9807L73.0557 15.3936ZM75.1064 14.793V15.293C76.5208 15.293 77.4539 15.7312 78.0267 16.5219L78.4316 16.2285L78.8365 15.9352C78.0227 14.8118 76.739 14.293 75.1064 14.293V14.793ZM78.4316 16.2285L78.0267 16.5219C78.6394 17.3675 78.9717 18.5375 78.9717 20.0811H79.4717H79.9717C79.9717 18.4019 79.6106 17.0036 78.8365 15.9352L78.4316 16.2285ZM79.4717 20.0811H78.9717V37H79.4717H79.9717V20.0811H79.4717ZM79.4717 37V36.5H74.1689V37V37.5H79.4717V37ZM74.1689 37H74.6689V20.418H74.1689H73.6689V37H74.1689ZM74.1689 20.418H74.6689C74.6689 19.87 74.5514 19.3733 74.2753 18.9657L73.8613 19.2461L73.4474 19.5265C73.5814 19.7244 73.6689 20.0089 73.6689 20.418H74.1689ZM73.8613 19.2461L74.2815 18.975C73.9753 18.5004 73.4855 18.292 72.9238 18.292V18.792V19.292C73.2216 19.292 73.3568 19.3863 73.4412 19.5172L73.8613 19.2461ZM72.9238 18.792V18.292C72.3884 18.292 71.9502 18.5373 71.6475 18.9775L72.0596 19.2607L72.4716 19.544C72.5986 19.3592 72.7366 19.292 72.9238 19.292V18.792ZM72.0596 19.2607L71.6415 18.9864C71.3753 19.3921 71.252 19.8618 71.252 20.374H71.752H72.252C72.252 20.0268 72.3337 19.7544 72.4776 19.5351L72.0596 19.2607ZM71.752 20.374H71.252V37H71.752H72.252V20.374H71.752ZM71.752 37V36.5H66.3613V37V37.5H71.752V37ZM83.1191 16.375L83.4519 16.7482L83.4536 16.7466L83.1191 16.375ZM94.2227 26.4971V26.9971H94.6941L94.7218 26.5264L94.2227 26.4971ZM86.6055 26.4971V25.9971H86.1055V26.4971H86.6055ZM86.6787 31.9023L86.1828 31.9659L86.183 31.9676L86.6787 31.9023ZM87.001 32.8252L86.5874 33.1065L86.5952 33.1173L87.001 32.8252ZM88.8613 32.4883L89.3413 32.6283L89.3421 32.6256L88.8613 32.4883ZM89.0664 28.5186V28.0186H88.5664V28.5186H89.0664ZM94.2812 28.5186H94.7812V28.0186H94.2812V28.5186ZM93.666 33.8945L93.1968 33.7217L93.196 33.724L93.666 33.8945ZM91.6152 36.3994L91.8666 36.8316L91.868 36.8308L91.6152 36.3994ZM86.5762 23.8896H86.0762V24.3896H86.5762V23.8896ZM89.0664 23.8896V24.3896H89.5664V23.8896H89.0664ZM88.7734 19.2314L88.3363 19.4743L88.3393 19.4795L88.7734 19.2314ZM86.9131 19.2021L86.5045 18.9137L86.4989 18.922L86.9131 19.2021ZM87.6895 37.2344V36.7344C86.1833 36.7344 85.0419 36.4511 84.2211 35.9327L83.9541 36.3555L83.6871 36.7782C84.7218 37.4317 86.0706 37.7344 87.6895 37.7344V37.2344ZM83.9541 36.3555L84.2211 35.9327C83.3939 35.4103 82.7973 34.6578 82.4319 33.6508L81.9619 33.8213L81.4919 33.9918C81.9273 35.1918 82.6588 36.1288 83.6871 36.7782L83.9541 36.3555ZM81.9619 33.8213L82.4319 33.6508C82.0566 32.6164 81.8613 31.3492 81.8613 29.8369H81.3613H80.8613C80.8613 31.4301 81.0664 32.8192 81.4919 33.9918L81.9619 33.8213ZM81.3613 29.8369H81.8613V21.0039H81.3613H80.8613V29.8369H81.3613ZM81.3613 21.0039H81.8613C81.8613 19.06 82.4162 17.6717 83.4519 16.7482L83.1191 16.375L82.7864 16.0018C81.4784 17.1681 80.8613 18.8657 80.8613 21.0039H81.3613ZM83.1191 16.375L83.4536 16.7466C84.5088 15.797 85.9878 15.293 87.9531 15.293V14.793V14.293C85.8169 14.293 84.0732 14.8437 82.7847 16.0034L83.1191 16.375ZM87.9531 14.793V15.293C89.9878 15.293 91.4214 15.7922 92.349 16.7025C93.2748 17.6112 93.7812 19.0131 93.7812 21.0039H94.2812H94.7812C94.7812 18.8541 94.233 17.1505 93.0495 15.9889C91.8676 14.8289 90.1372 14.293 87.9531 14.293V14.793ZM94.2812 21.0039H93.7812V22.6006H94.2812H94.7812V21.0039H94.2812ZM94.2812 22.6006H93.7812C93.7812 24.5363 93.7616 25.8206 93.7235 26.4677L94.2227 26.4971L94.7218 26.5264C94.7619 25.8454 94.7812 24.5321 94.7812 22.6006H94.2812ZM94.2227 26.4971V25.9971H86.6055V26.4971V26.9971H94.2227V26.4971ZM86.6055 26.4971H86.1055V30.7451H86.6055H87.1055V26.4971H86.6055ZM86.6055 30.7451H86.1055C86.1055 31.1566 86.1312 31.5636 86.1828 31.9659L86.6787 31.9023L87.1747 31.8388C87.1286 31.4793 87.1055 31.1149 87.1055 30.7451H86.6055ZM86.6787 31.9023L86.183 31.9676C86.2393 32.3959 86.3674 32.7827 86.5875 33.1064L87.001 32.8252L87.4144 32.544C87.3025 32.3794 87.2157 32.151 87.1744 31.8371L86.6787 31.9023ZM87.001 32.8252L86.5952 33.1173C86.8897 33.5263 87.3419 33.6914 87.8359 33.6914V33.1914V32.6914C87.5683 32.6914 87.4638 32.6123 87.4067 32.533L87.001 32.8252ZM87.8359 33.1914V33.6914C88.1785 33.6914 88.5082 33.6179 88.7852 33.428C89.0677 33.2343 89.2467 32.9528 89.3413 32.6283L88.8613 32.4883L88.3813 32.3483C88.3393 32.4925 88.279 32.5626 88.2197 32.6033C88.1549 32.6477 88.0403 32.6914 87.8359 32.6914V33.1914ZM88.8613 32.4883L89.3421 32.6256C89.4964 32.0854 89.5664 31.4143 89.5664 30.6279H89.0664H88.5664C88.5664 31.365 88.4997 31.9341 88.3806 32.3509L88.8613 32.4883ZM89.0664 30.6279H89.5664V28.5186H89.0664H88.5664V30.6279H89.0664ZM89.0664 28.5186V29.0186H94.2812V28.5186V28.0186H89.0664V28.5186ZM94.2812 28.5186H93.7812V29.7637H94.2812H94.7812V28.5186H94.2812ZM94.2812 29.7637H93.7812C93.7812 31.3663 93.5804 32.6805 93.1968 33.7217L93.666 33.8945L94.1352 34.0674C94.5719 32.882 94.7812 31.4423 94.7812 29.7637H94.2812ZM93.666 33.8945L93.196 33.724C92.8333 34.7235 92.2236 35.4635 91.3625 35.968L91.6152 36.3994L91.868 36.8308C92.9405 36.2025 93.6979 35.2726 94.136 34.0651L93.666 33.8945ZM91.6152 36.3994L91.3638 35.9672C90.5121 36.4626 89.3022 36.7344 87.6895 36.7344V37.2344V37.7344C89.3971 37.7344 90.8043 37.4495 91.8666 36.8316L91.6152 36.3994ZM86.5762 23.8896V24.3896H89.0664V23.8896V23.3896H86.5762V23.8896ZM89.0664 23.8896H89.5664V20.9307H89.0664H88.5664V23.8896H89.0664ZM89.0664 20.9307H89.5664C89.5664 20.1241 89.4713 19.445 89.2076 18.9834L88.7734 19.2314L88.3393 19.4795C88.4662 19.7015 88.5664 20.1552 88.5664 20.9307H89.0664ZM88.7734 19.2314L89.2105 18.9886C89.0779 18.7498 88.8985 18.5476 88.6645 18.4072C88.4297 18.2663 88.1672 18.2041 87.8945 18.2041V18.7041V19.2041C88.0125 19.2041 88.0918 19.2298 88.15 19.2647C88.2089 19.3 88.2737 19.3615 88.3364 19.4743L88.7734 19.2314ZM87.8945 18.7041V18.2041C87.3186 18.2041 86.8363 18.4439 86.5046 18.9138L86.9131 19.2021L87.3216 19.4905C87.4586 19.2963 87.6307 19.2041 87.8945 19.2041V18.7041ZM86.9131 19.2021L86.4989 18.922C86.1845 19.3868 86.0762 20.096 86.0762 20.9307H86.5762H87.0762C87.0762 20.1247 87.1925 19.6815 87.3272 19.4823L86.9131 19.2021ZM86.5762 20.9307H86.0762V23.8896H86.5762H87.0762V20.9307H86.5762ZM97.7529 16.6533L98.1164 16.9966L98.1178 16.9952L97.7529 16.6533ZM107.406 16.6533L107.041 16.9952L107.043 16.9966L107.406 16.6533ZM103.51 32.7227L103.082 32.4635L103.08 32.4674L103.51 32.7227ZM101.62 32.7227L101.187 32.9721L101.191 32.98L101.196 32.9877L101.62 32.7227ZM102.572 37.2344V36.7344C100.467 36.7344 98.9782 36.189 98.0105 35.1846C97.0394 34.1767 96.5098 32.6209 96.5098 30.4229H96.0098H95.5098C95.5098 32.7659 96.0739 34.6158 97.2903 35.8784C98.5101 37.1445 100.303 37.7344 102.572 37.7344V37.2344ZM96.0098 30.4229H96.5098V21.6045H96.0098H95.5098V30.4229H96.0098ZM96.0098 21.6045H96.5098C96.5098 19.6318 97.0606 18.1145 98.1164 16.9966L97.7529 16.6533L97.3894 16.31C96.121 17.6531 95.5098 19.4366 95.5098 21.6045H96.0098ZM97.7529 16.6533L98.1178 16.9952C99.1662 15.8763 100.629 15.293 102.572 15.293V14.793V14.293C100.414 14.293 98.6639 14.9498 97.3881 16.3114L97.7529 16.6533ZM102.572 14.793V15.293C104.526 15.293 105.993 15.8768 107.041 16.9952L107.406 16.6533L107.771 16.3114C106.495 14.9493 104.739 14.293 102.572 14.293V14.793ZM107.406 16.6533L107.043 16.9966C108.099 18.1145 108.649 19.6318 108.649 21.6045H109.149H109.649C109.649 19.4366 109.038 17.6531 107.77 16.31L107.406 16.6533ZM109.149 21.6045H108.649V30.4229H109.149H109.649V21.6045H109.149ZM109.149 30.4229H108.649C108.649 32.6206 108.119 34.1763 107.145 35.1842C106.175 36.1888 104.683 36.7344 102.572 36.7344V37.2344V37.7344C104.846 37.7344 106.643 37.1447 107.865 35.8788C109.084 34.6162 109.649 32.7661 109.649 30.4229H109.149ZM102.572 33.1914V33.6914C103.145 33.6914 103.644 33.476 103.94 32.9779L103.51 32.7227L103.08 32.4674C103.004 32.5943 102.879 32.6914 102.572 32.6914V33.1914ZM103.51 32.7227L103.937 32.9818C104.192 32.5615 104.303 32.06 104.303 31.5068H103.803H103.303C103.303 31.9302 103.218 32.2393 103.082 32.4635L103.51 32.7227ZM103.803 31.5068H104.303V20.7695H103.803H103.303V31.5068H103.803ZM103.803 20.7695H104.303C104.303 20.0925 104.197 19.4988 103.916 19.0604C103.611 18.5841 103.137 18.3506 102.572 18.3506V18.8506V19.3506C102.828 19.3506 102.969 19.4369 103.074 19.6002C103.203 19.8015 103.303 20.1673 103.303 20.7695H103.803ZM102.572 18.8506V18.3506C102.008 18.3506 101.534 18.5841 101.229 19.0604C100.947 19.4988 100.842 20.0925 100.842 20.7695H101.342H101.842C101.842 20.1673 101.941 19.8015 102.07 19.6002C102.175 19.4369 102.316 19.3506 102.572 19.3506V18.8506ZM101.342 20.7695H100.842V31.5068H101.342H101.842V20.7695H101.342ZM101.342 31.5068H100.842C100.842 32.056 100.946 32.5538 101.187 32.9721L101.62 32.7227L102.053 32.4732C101.923 32.247 101.842 31.9342 101.842 31.5068H101.342ZM101.62 32.7227L101.196 32.9877C101.502 33.4764 101.999 33.6914 102.572 33.6914V33.1914V32.6914C102.267 32.6914 102.129 32.5939 102.044 32.4577L101.62 32.7227ZM111.083 32.8398L110.585 32.8896L110.586 32.8951L111.083 32.8398ZM111.845 16.3604L111.412 16.1097L111.41 16.1127L111.845 16.3604ZM117.353 15.4814L117.038 15.87L117.045 15.8758L117.353 15.4814ZM118.686 17.3711L118.219 17.551L119.186 17.3711H118.686ZM118.686 11.2188V10.7188H118.186V11.2188H118.686ZM124.018 11.2188H124.518V10.7188H124.018V11.2188ZM124.018 37V37.5H124.518V37H124.018ZM118.686 37H118.186V37.5H118.686V37ZM118.686 34.6709H119.186L118.217 34.4972L118.686 34.6709ZM117.514 36.5459L117.171 36.1816L117.168 36.1851L117.514 36.5459ZM118.422 32.5322L117.964 32.3312L117.96 32.3407L118.422 32.5322ZM118.451 19.6123L117.971 19.7509L117.974 19.762L118.451 19.6123ZM115.419 37.2344V36.7344C114.457 36.7344 113.755 36.5576 113.266 36.2533L113.002 36.6777L112.738 37.1021C113.441 37.54 114.349 37.7344 115.419 37.7344V37.2344ZM113.002 36.6777L113.266 36.2533C112.757 35.9361 112.379 35.5009 112.125 34.9353L111.669 35.1396L111.213 35.344C111.545 36.087 112.056 36.6772 112.738 37.1021L113.002 36.6777ZM111.669 35.1396L112.125 34.9353C111.858 34.3379 111.673 33.6236 111.58 32.7846L111.083 32.8398L110.586 32.8951C110.688 33.8139 110.894 34.6328 111.213 35.344L111.669 35.1396ZM111.083 32.8398L111.581 32.7901C111.494 31.9298 111.451 31.0042 111.451 30.0127H110.951H110.451C110.451 31.0329 110.496 31.9921 110.585 32.8896L111.083 32.8398ZM110.951 30.0127H111.451V20.4619H110.951H110.451V30.0127H110.951ZM110.951 20.4619H111.451C111.451 18.826 111.74 17.553 112.279 16.608L111.845 16.3604L111.41 16.1127C110.758 17.2575 110.451 18.7189 110.451 20.4619H110.951ZM111.845 16.3604L112.277 16.611C112.775 15.752 113.609 15.293 114.906 15.293V14.793V14.293C113.332 14.293 112.125 14.8788 111.412 16.1097L111.845 16.3604ZM114.906 14.793V15.293C115.907 15.293 116.593 15.5098 117.038 15.8699L117.353 15.4814L117.667 15.093C116.979 14.5351 116.034 14.293 114.906 14.293V14.793ZM117.353 15.4814L117.045 15.8758C117.537 16.2595 117.933 16.8089 118.219 17.551L118.686 17.3711L119.152 17.1912C118.813 16.3122 118.32 15.6018 117.66 15.0871L117.353 15.4814ZM118.686 17.3711H119.186V11.2188H118.686H118.186V17.3711H118.686ZM118.686 11.2188V11.7188H124.018V11.2188V10.7188H118.686V11.2188ZM124.018 11.2188H123.518V37H124.018H124.518V11.2188H124.018ZM124.018 37V36.5H118.686V37V37.5H124.018V37ZM118.686 37H119.186V34.6709H118.686H118.186V37H118.686ZM118.686 34.6709L118.217 34.4972C117.944 35.2341 117.591 35.7874 117.171 36.1816L117.514 36.5459L117.856 36.9102C118.413 36.3864 118.841 35.6898 119.154 34.8446L118.686 34.6709ZM117.514 36.5459L117.168 36.1851C116.813 36.5252 116.258 36.7344 115.419 36.7344V37.2344V37.7344C116.416 37.7344 117.257 37.4846 117.86 36.9067L117.514 36.5459ZM117.426 33.1328V33.6328C117.74 33.6328 118.043 33.5695 118.307 33.4109C118.575 33.2492 118.765 33.0104 118.884 32.7237L118.422 32.5322L117.96 32.3407C117.913 32.4545 117.854 32.516 117.79 32.5545C117.721 32.596 117.609 32.6328 117.426 32.6328V33.1328ZM118.422 32.5322L118.88 32.7332C119.102 32.2273 119.186 31.4137 119.186 30.3789H118.686H118.186C118.186 31.4144 118.093 32.0364 117.964 32.3312L118.422 32.5322ZM118.686 30.3789H119.186V21.1357H118.686H118.186V30.3789H118.686ZM118.686 21.1357H119.186C119.186 20.567 119.1 20.0087 118.928 19.4626L118.451 19.6123L117.974 19.762C118.115 20.212 118.186 20.6694 118.186 21.1357H118.686ZM118.451 19.6123L118.932 19.4737C118.837 19.1444 118.667 18.8513 118.396 18.6438C118.124 18.4356 117.797 18.3506 117.455 18.3506V18.8506V19.3506C117.631 19.3506 117.729 19.3925 117.789 19.4382C117.849 19.4846 117.919 19.5724 117.971 19.7509L118.451 19.6123ZM117.455 18.8506V18.3506C117.104 18.3506 116.767 18.4248 116.484 18.6149C116.195 18.8088 116.009 19.092 115.908 19.422L116.386 19.5684L116.864 19.7147C116.909 19.5662 116.974 19.4905 117.042 19.4452C117.115 19.396 117.24 19.3506 117.455 19.3506V18.8506ZM116.386 19.5684L115.908 19.422C115.745 19.9537 115.666 20.5262 115.666 21.1357H116.166H116.666C116.666 20.6125 116.734 20.14 116.864 19.7147L116.386 19.5684ZM116.166 21.1357H115.666V30.3789H116.166H116.666V21.1357H116.166ZM116.166 30.3789H115.666C115.666 31.3193 115.771 32.0946 116.026 32.6523C116.157 32.9374 116.336 33.1867 116.58 33.3648C116.83 33.5468 117.119 33.6328 117.426 33.6328V33.1328V32.6328C117.313 32.6328 117.234 32.6041 117.169 32.5566C117.099 32.5052 117.015 32.4102 116.936 32.2363C116.771 31.8761 116.666 31.2744 116.666 30.3789H116.166ZM127.606 16.6533L127.97 16.9966L127.971 16.9952L127.606 16.6533ZM137.26 16.6533L136.895 16.9952L136.896 16.9966L137.26 16.6533ZM133.363 32.7227L132.936 32.4635L132.933 32.4674L133.363 32.7227ZM131.474 32.7227L131.04 32.9721L131.045 32.98L131.05 32.9877L131.474 32.7227ZM132.426 37.2344V36.7344C130.32 36.7344 128.832 36.189 127.864 35.1846C126.893 34.1767 126.363 32.6209 126.363 30.4229H125.863H125.363C125.363 32.7659 125.927 34.6158 127.144 35.8784C128.364 37.1445 130.156 37.7344 132.426 37.7344V37.2344ZM125.863 30.4229H126.363V21.6045H125.863H125.363V30.4229H125.863ZM125.863 21.6045H126.363C126.363 19.6318 126.914 18.1145 127.97 16.9966L127.606 16.6533L127.243 16.31C125.975 17.6531 125.363 19.4366 125.363 21.6045H125.863ZM127.606 16.6533L127.971 16.9952C129.02 15.8763 130.482 15.293 132.426 15.293V14.793V14.293C130.268 14.293 128.517 14.9498 127.242 16.3114L127.606 16.6533ZM132.426 14.793V15.293C134.38 15.293 135.847 15.8768 136.895 16.9952L137.26 16.6533L137.625 16.3114C136.348 14.9493 134.593 14.293 132.426 14.293V14.793ZM137.26 16.6533L136.896 16.9966C137.952 18.1145 138.503 19.6318 138.503 21.6045H139.003H139.503C139.503 19.4366 138.892 17.6531 137.623 16.31L137.26 16.6533ZM139.003 21.6045H138.503V30.4229H139.003H139.503V21.6045H139.003ZM139.003 30.4229H138.503C138.503 32.6206 137.972 34.1763 136.999 35.1842C136.029 36.1888 134.537 36.7344 132.426 36.7344V37.2344V37.7344C134.7 37.7344 136.496 37.1447 137.718 35.8788C138.937 34.6162 139.503 32.7661 139.503 30.4229H139.003ZM132.426 33.1914V33.6914C132.998 33.6914 133.497 33.476 133.793 32.9779L133.363 32.7227L132.933 32.4674C132.858 32.5943 132.732 32.6914 132.426 32.6914V33.1914ZM133.363 32.7227L133.791 32.9818C134.046 32.5615 134.156 32.06 134.156 31.5068H133.656H133.156C133.156 31.9302 133.072 32.2393 132.936 32.4635L133.363 32.7227ZM133.656 31.5068H134.156V20.7695H133.656H133.156V31.5068H133.656ZM133.656 20.7695H134.156C134.156 20.0925 134.051 19.4988 133.77 19.0604C133.464 18.5841 132.99 18.3506 132.426 18.3506V18.8506V19.3506C132.682 19.3506 132.823 19.4369 132.928 19.6002C133.057 19.8015 133.156 20.1673 133.156 20.7695H133.656ZM132.426 18.8506V18.3506C131.861 18.3506 131.387 18.5841 131.082 19.0604C130.801 19.4988 130.695 20.0925 130.695 20.7695H131.195H131.695C131.695 20.1673 131.795 19.8015 131.924 19.6002C132.029 19.4369 132.17 19.3506 132.426 19.3506V18.8506ZM131.195 20.7695H130.695V31.5068H131.195H131.695V20.7695H131.195ZM131.195 31.5068H130.695C130.695 32.056 130.799 32.5538 131.04 32.9721L131.474 32.7227L131.907 32.4732C131.777 32.247 131.695 31.9342 131.695 31.5068H131.195ZM131.474 32.7227L131.05 32.9877C131.355 33.4764 131.853 33.6914 132.426 33.6914V33.1914V32.6914C132.12 32.6914 131.983 32.5939 131.898 32.4577L131.474 32.7227ZM140.951 37H140.451V37.5H140.951V37ZM140.951 15.0273V14.5273H140.451V15.0273H140.951ZM146.283 15.0273H146.783V14.5273H146.283V15.0273ZM146.283 17.4736H145.783L146.762 17.6168L146.283 17.4736ZM150.062 14.7637H150.562V14.2637H150.062V14.7637ZM150.062 19.1436V19.6436H150.562V19.1436H150.062ZM148.524 19.29L148.597 19.7847L148.605 19.7835L148.524 19.29ZM146.957 19.6709L147.121 20.1432L147.13 20.1399L146.957 19.6709ZM146.283 37V37.5H146.783V37H146.283ZM140.951 37H141.451V15.0273H140.951H140.451V37H140.951ZM140.951 15.0273V15.5273H146.283V15.0273V14.5273H140.951V15.0273ZM146.283 15.0273H145.783V17.4736H146.283H146.783V15.0273H146.283ZM146.283 17.4736L146.762 17.6168C146.989 16.8592 147.38 16.2904 147.929 15.8829L147.631 15.4814L147.333 15.08C146.593 15.6296 146.086 16.3889 145.804 17.3305L146.283 17.4736ZM147.631 15.4814L147.929 15.8829C148.47 15.4812 149.17 15.2637 150.062 15.2637V14.7637V14.2637C149.002 14.2637 148.081 14.5246 147.333 15.08L147.631 15.4814ZM150.062 14.7637H149.562V19.1436H150.062H150.562V14.7637H150.062ZM150.062 19.1436V18.6436C149.597 18.6436 149.056 18.6962 148.444 18.7966L148.524 19.29L148.605 19.7835C149.184 19.6886 149.668 19.6436 150.062 19.6436V19.1436ZM148.524 19.29L148.451 18.7954C147.83 18.8871 147.272 19.0213 146.784 19.2019L146.957 19.6709L147.13 20.1399C147.54 19.9885 148.028 19.8687 148.597 19.7847L148.524 19.29ZM146.957 19.6709L146.793 19.1987C146.546 19.2845 146.318 19.3892 146.144 19.5262C145.968 19.6635 145.783 19.8858 145.783 20.1982H146.283H146.783C146.783 20.3154 146.711 20.3522 146.76 20.3137C146.809 20.2748 146.919 20.2136 147.121 20.1431L146.957 19.6709ZM146.283 20.1982H145.783V37H146.283H146.783V20.1982H146.283ZM146.283 37V36.5H140.951V37V37.5H146.283V37ZM152.919 16.6533L153.282 16.9966L153.284 16.9952L152.919 16.6533ZM162.572 16.6533L162.207 16.9952L162.209 16.9966L162.572 16.6533ZM158.676 32.7227L158.248 32.4635L158.246 32.4674L158.676 32.7227ZM156.786 32.7227L156.353 32.9721L156.357 32.98L156.362 32.9877L156.786 32.7227ZM157.738 37.2344V36.7344C155.633 36.7344 154.144 36.189 153.176 35.1846C152.205 34.1767 151.676 32.6209 151.676 30.4229H151.176H150.676C150.676 32.7659 151.24 34.6158 152.456 35.8784C153.676 37.1445 155.469 37.7344 157.738 37.7344V37.2344ZM151.176 30.4229H151.676V21.6045H151.176H150.676V30.4229H151.176ZM151.176 21.6045H151.676C151.676 19.6318 152.227 18.1145 153.282 16.9966L152.919 16.6533L152.555 16.31C151.287 17.6531 150.676 19.4366 150.676 21.6045H151.176ZM152.919 16.6533L153.284 16.9952C154.332 15.8763 155.795 15.293 157.738 15.293V14.793V14.293C155.58 14.293 153.83 14.9498 152.554 16.3114L152.919 16.6533ZM157.738 14.793V15.293C159.692 15.293 161.159 15.8768 162.207 16.9952L162.572 16.6533L162.937 16.3114C161.661 14.9493 159.905 14.293 157.738 14.293V14.793ZM162.572 16.6533L162.209 16.9966C163.265 18.1145 163.815 19.6318 163.815 21.6045H164.315H164.815C164.815 19.4366 164.204 17.6531 162.936 16.31L162.572 16.6533ZM164.315 21.6045H163.815V30.4229H164.315H164.815V21.6045H164.315ZM164.315 30.4229H163.815C163.815 32.6206 163.285 34.1763 162.311 35.1842C161.341 36.1888 159.849 36.7344 157.738 36.7344V37.2344V37.7344C160.012 37.7344 161.809 37.1447 163.031 35.8788C164.25 34.6162 164.815 32.7661 164.815 30.4229H164.315ZM157.738 33.1914V33.6914C158.311 33.6914 158.81 33.476 159.106 32.9779L158.676 32.7227L158.246 32.4674C158.17 32.5943 158.045 32.6914 157.738 32.6914V33.1914ZM158.676 32.7227L159.103 32.9818C159.358 32.5615 159.469 32.06 159.469 31.5068H158.969H158.469C158.469 31.9302 158.384 32.2393 158.248 32.4635L158.676 32.7227ZM158.969 31.5068H159.469V20.7695H158.969H158.469V31.5068H158.969ZM158.969 20.7695H159.469C159.469 20.0925 159.363 19.4988 159.082 19.0604C158.777 18.5841 158.303 18.3506 157.738 18.3506V18.8506V19.3506C157.994 19.3506 158.136 19.4369 158.24 19.6002C158.369 19.8015 158.469 20.1673 158.469 20.7695H158.969ZM157.738 18.8506V18.3506C157.174 18.3506 156.7 18.5841 156.395 19.0604C156.113 19.4988 156.008 20.0925 156.008 20.7695H156.508H157.008C157.008 20.1673 157.107 19.8015 157.236 19.6002C157.341 19.4369 157.482 19.3506 157.738 19.3506V18.8506ZM156.508 20.7695H156.008V31.5068H156.508H157.008V20.7695H156.508ZM156.508 31.5068H156.008C156.008 32.056 156.112 32.5538 156.353 32.9721L156.786 32.7227L157.219 32.4732C157.089 32.247 157.008 31.9342 157.008 31.5068H156.508ZM156.786 32.7227L156.362 32.9877C156.668 33.4764 157.165 33.6914 157.738 33.6914V33.1914V32.6914C157.433 32.6914 157.295 32.5939 157.21 32.4577L156.786 32.7227ZM166.015 36.9854H165.515V37.4854H166.015V36.9854ZM166.015 32.6201V32.1201H165.515V32.6201H166.015ZM171.259 32.6201H171.759V32.1201H171.259V32.6201ZM171.259 36.9854V37.4854H171.759V36.9854H171.259ZM166.015 36.9854H166.515V32.6201H166.015H165.515V36.9854H166.015ZM166.015 32.6201V33.1201H171.259V32.6201V32.1201H166.015V32.6201ZM171.259 32.6201H170.759V36.9854H171.259H171.759V32.6201H171.259ZM171.259 36.9854V36.4854H166.015V36.9854V37.4854H171.259V36.9854ZM173.104 32.8398L172.607 32.8896L172.608 32.8951L173.104 32.8398ZM173.866 16.3604L173.434 16.1097L173.432 16.1127L173.866 16.3604ZM179.374 15.4814L179.059 15.87L179.067 15.8758L179.374 15.4814ZM180.707 17.3711L180.241 17.551L181.207 17.3711H180.707ZM180.707 11.2188V10.7188H180.207V11.2188H180.707ZM186.039 11.2188H186.539V10.7188H186.039V11.2188ZM186.039 37V37.5H186.539V37H186.039ZM180.707 37H180.207V37.5H180.707V37ZM180.707 34.6709H181.207L180.238 34.4972L180.707 34.6709ZM179.535 36.5459L179.193 36.1816L179.189 36.1851L179.535 36.5459ZM180.443 32.5322L179.985 32.3312L179.981 32.3407L180.443 32.5322ZM180.473 19.6123L179.992 19.7509L179.996 19.762L180.473 19.6123ZM177.44 37.2344V36.7344C176.479 36.7344 175.776 36.5576 175.288 36.2533L175.023 36.6777L174.759 37.1021C175.462 37.54 176.371 37.7344 177.44 37.7344V37.2344ZM175.023 36.6777L175.288 36.2533C174.778 35.9361 174.4 35.5009 174.147 34.9353L173.69 35.1396L173.234 35.344C173.567 36.087 174.077 36.6772 174.759 37.1021L175.023 36.6777ZM173.69 35.1396L174.147 34.9353C173.879 34.3379 173.695 33.6236 173.601 32.7846L173.104 32.8398L172.608 32.8951C172.71 33.8139 172.916 34.6328 173.234 35.344L173.69 35.1396ZM173.104 32.8398L173.602 32.7901C173.516 31.9298 173.473 31.0042 173.473 30.0127H172.973H172.473C172.473 31.0329 172.517 31.9921 172.607 32.8896L173.104 32.8398ZM172.973 30.0127H173.473V20.4619H172.973H172.473V30.0127H172.973ZM172.973 20.4619H173.473C173.473 18.826 173.762 17.553 174.301 16.608L173.866 16.3604L173.432 16.1127C172.779 17.2575 172.473 18.7189 172.473 20.4619H172.973ZM173.866 16.3604L174.299 16.611C174.797 15.752 175.631 15.293 176.928 15.293V14.793V14.293C175.354 14.293 174.147 14.8788 173.434 16.1097L173.866 16.3604ZM176.928 14.793V15.293C177.929 15.293 178.615 15.5098 179.059 15.8699L179.374 15.4814L179.689 15.093C179 14.5351 178.056 14.293 176.928 14.293V14.793ZM179.374 15.4814L179.067 15.8758C179.559 16.2595 179.954 16.8089 180.241 17.551L180.707 17.3711L181.174 17.1912C180.835 16.3122 180.342 15.6018 179.681 15.0871L179.374 15.4814ZM180.707 17.3711H181.207V11.2188H180.707H180.207V17.3711H180.707ZM180.707 11.2188V11.7188H186.039V11.2188V10.7188H180.707V11.2188ZM186.039 11.2188H185.539V37H186.039H186.539V11.2188H186.039ZM186.039 37V36.5H180.707V37V37.5H186.039V37ZM180.707 37H181.207V34.6709H180.707H180.207V37H180.707ZM180.707 34.6709L180.238 34.4972C179.965 35.2341 179.612 35.7874 179.193 36.1816L179.535 36.5459L179.878 36.9102C180.435 36.3864 180.863 35.6898 181.176 34.8446L180.707 34.6709ZM179.535 36.5459L179.189 36.1851C178.834 36.5252 178.28 36.7344 177.44 36.7344V37.2344V37.7344C178.437 37.7344 179.279 37.4846 179.881 36.9067L179.535 36.5459ZM179.447 33.1328V33.6328C179.762 33.6328 180.065 33.5695 180.328 33.4109C180.596 33.2492 180.786 33.0104 180.905 32.7237L180.443 32.5322L179.981 32.3407C179.934 32.4545 179.876 32.516 179.812 32.5545C179.743 32.596 179.631 32.6328 179.447 32.6328V33.1328ZM180.443 32.5322L180.901 32.7332C181.123 32.2273 181.207 31.4137 181.207 30.3789H180.707H180.207C180.207 31.4144 180.115 32.0364 179.986 32.3312L180.443 32.5322ZM180.707 30.3789H181.207V21.1357H180.707H180.207V30.3789H180.707ZM180.707 21.1357H181.207C181.207 20.567 181.121 20.0087 180.95 19.4626L180.473 19.6123L179.996 19.762C180.137 20.212 180.207 20.6694 180.207 21.1357H180.707ZM180.473 19.6123L180.953 19.4737C180.858 19.1444 180.689 18.8513 180.417 18.6438C180.145 18.4356 179.818 18.3506 179.477 18.3506V18.8506V19.3506C179.652 19.3506 179.75 19.3925 179.81 19.4382C179.871 19.4846 179.941 19.5724 179.992 19.7509L180.473 19.6123ZM179.477 18.8506V18.3506C179.125 18.3506 178.789 18.4248 178.506 18.6149C178.217 18.8088 178.03 19.092 177.929 19.422L178.407 19.5684L178.885 19.7147C178.931 19.5662 178.996 19.4905 179.063 19.4452C179.136 19.396 179.261 19.3506 179.477 19.3506V18.8506ZM178.407 19.5684L177.929 19.422C177.766 19.9537 177.688 20.5262 177.688 21.1357H178.188H178.688C178.688 20.6125 178.755 20.14 178.885 19.7147L178.407 19.5684ZM178.188 21.1357H177.688V30.3789H178.188H178.688V21.1357H178.188ZM178.188 30.3789H177.688C177.688 31.3193 177.793 32.0946 178.048 32.6523C178.178 32.9374 178.357 33.1867 178.602 33.3648C178.851 33.5468 179.14 33.6328 179.447 33.6328V33.1328V32.6328C179.334 32.6328 179.256 32.6041 179.191 32.5566C179.12 32.5052 179.037 32.4102 178.957 32.2363C178.792 31.8761 178.688 31.2744 178.688 30.3789H178.188ZM188.061 37H187.561V37.5H188.061V37ZM188.061 15.0273V14.5273H187.561V15.0273H188.061ZM193.393 15.0273H193.893V14.5273H193.393V15.0273ZM193.393 17.4736H192.893L193.872 17.6168L193.393 17.4736ZM197.172 14.7637H197.672V14.2637H197.172V14.7637ZM197.172 19.1436V19.6436H197.672V19.1436H197.172ZM195.634 19.29L195.707 19.7847L195.715 19.7835L195.634 19.29ZM194.066 19.6709L194.231 20.1432L194.24 20.1399L194.066 19.6709ZM193.393 37V37.5H193.893V37H193.393ZM188.061 37H188.561V15.0273H188.061H187.561V37H188.061ZM188.061 15.0273V15.5273H193.393V15.0273V14.5273H188.061V15.0273ZM193.393 15.0273H192.893V17.4736H193.393H193.893V15.0273H193.393ZM193.393 17.4736L193.872 17.6168C194.098 16.8592 194.489 16.2904 195.038 15.8829L194.74 15.4814L194.442 15.08C193.702 15.6296 193.195 16.3889 192.914 17.3305L193.393 17.4736ZM194.74 15.4814L195.038 15.8829C195.579 15.4812 196.279 15.2637 197.172 15.2637V14.7637V14.2637C196.112 14.2637 195.19 14.5246 194.442 15.08L194.74 15.4814ZM197.172 14.7637H196.672V19.1436H197.172H197.672V14.7637H197.172ZM197.172 19.1436V18.6436C196.707 18.6436 196.166 18.6962 195.553 18.7966L195.634 19.29L195.715 19.7835C196.293 19.6886 196.778 19.6436 197.172 19.6436V19.1436ZM195.634 19.29L195.561 18.7954C194.939 18.8871 194.382 19.0213 193.893 19.2019L194.066 19.6709L194.24 20.1399C194.649 19.9885 195.137 19.8687 195.707 19.7847L195.634 19.29ZM194.066 19.6709L193.902 19.1987C193.655 19.2845 193.428 19.3892 193.253 19.5262C193.077 19.6635 192.893 19.8858 192.893 20.1982H193.393H193.893C193.893 20.3154 193.82 20.3522 193.869 20.3137C193.919 20.2748 194.028 20.2136 194.231 20.1431L194.066 19.6709ZM193.393 20.1982H192.893V37H193.393H193.893V20.1982H193.393ZM193.393 37V36.5H188.061V37V37.5H193.393V37ZM199.999 36.502L199.688 36.8936L199.691 36.896L199.999 36.502ZM198.739 34.4658L198.255 34.5896L198.255 34.5909L198.739 34.4658ZM198.402 15.0273V14.5273H197.902V15.0273H198.402ZM203.676 15.0273H204.176V14.5273H203.676V15.0273ZM203.881 32.6201L203.415 32.8013L203.417 32.8058L203.881 32.6201ZM205.873 32.4004L205.394 32.2567L205.392 32.2656L205.873 32.4004ZM206.093 15.0273V14.5273H205.593V15.0273H206.093ZM211.322 15.0273H211.822V14.5273H211.322V15.0273ZM211.322 37V37.5H211.822V37H211.322ZM206.078 37H205.578V37.5H206.078V37ZM206.078 34.6562H206.578L205.613 34.4724L206.078 34.6562ZM204.877 36.5752L204.535 36.2104L204.531 36.214L204.877 36.5752ZM202.694 37.2344V36.7344C201.583 36.7344 200.811 36.5016 200.307 36.1079L199.999 36.502L199.691 36.896C200.437 37.4789 201.462 37.7344 202.694 37.7344V37.2344ZM199.999 36.502L200.31 36.1103C199.792 35.6991 199.425 35.1203 199.223 34.3407L198.739 34.4658L198.255 34.5909C198.503 35.5497 198.976 36.3282 199.688 36.8936L199.999 36.502ZM198.739 34.4658L199.224 34.342C199.012 33.5133 198.902 32.5312 198.902 31.3896H198.402H197.902C197.902 32.5918 198.017 33.6605 198.255 34.5896L198.739 34.4658ZM198.402 31.3896H198.902V15.0273H198.402H197.902V31.3896H198.402ZM198.402 15.0273V15.5273H203.676V15.0273V14.5273H198.402V15.0273ZM203.676 15.0273H203.176V30.7744H203.676H204.176V15.0273H203.676ZM203.676 30.7744H203.176C203.176 31.6545 203.241 32.3542 203.415 32.8013L203.881 32.6201L204.347 32.4389C204.247 32.1829 204.176 31.6521 204.176 30.7744H203.676ZM203.881 32.6201L203.417 32.8058C203.528 33.0855 203.724 33.3049 203.991 33.4464C204.247 33.5821 204.542 33.6328 204.848 33.6328V33.1328V32.6328C204.645 32.6328 204.526 32.5981 204.459 32.5629C204.404 32.5335 204.37 32.4966 204.345 32.4344L203.881 32.6201ZM204.848 33.1328V33.6328C205.194 33.6328 205.527 33.5552 205.805 33.3566C206.087 33.1553 206.262 32.8656 206.355 32.5352L205.873 32.4004L205.392 32.2656C205.347 32.4235 205.284 32.5 205.224 32.5428C205.16 32.5884 205.048 32.6328 204.848 32.6328V33.1328ZM205.873 32.4004L206.352 32.5441C206.518 31.9918 206.593 31.3086 206.593 30.5107H206.093H205.593C205.593 31.2558 205.521 31.8324 205.394 32.2567L205.873 32.4004ZM206.093 30.5107H206.593V15.0273H206.093H205.593V30.5107H206.093ZM206.093 15.0273V15.5273H211.322V15.0273V14.5273H206.093V15.0273ZM211.322 15.0273H210.822V37H211.322H211.822V15.0273H211.322ZM211.322 37V36.5H206.078V37V37.5H211.322V37ZM206.078 37H206.578V34.6562H206.078H205.578V37H206.078ZM206.078 34.6562L205.613 34.4724C205.298 35.2696 204.933 35.8376 204.535 36.2104L204.877 36.5752L205.219 36.94C205.759 36.4339 206.194 35.7226 206.543 34.8401L206.078 34.6562ZM204.877 36.5752L204.531 36.214C204.206 36.5253 203.632 36.7344 202.694 36.7344V37.2344V37.7344C203.749 37.7344 204.63 37.504 205.223 36.9363L204.877 36.5752ZM216.728 40.6475L216.8 40.1527L216.794 40.152L216.728 40.6475ZM213.051 38.9922L212.619 38.7399L212.405 39.1059L212.731 39.3768L213.051 38.9922ZM214.823 35.96L215.079 35.5303L214.646 35.2725L214.392 35.7076L214.823 35.96ZM221.151 32.0488H221.651L220.67 31.9144L221.151 32.0488ZM213.798 17.6787L214.279 17.8147L214.279 17.8133L213.798 17.6787ZM220.053 15.5254L219.716 15.8954L219.72 15.8984L220.053 15.5254ZM221.151 17.5029L220.663 17.612L221.651 17.5029H221.151ZM221.151 15.0273V14.5273H220.651V15.0273H221.151ZM226.498 15.0273H226.998V14.5273H226.498V15.0273ZM224.77 39.1973L224.43 38.83L224.427 38.833L224.77 39.1973ZM220.8 19.4219L220.359 19.6577L220.363 19.6656L220.8 19.4219ZM218.91 19.3633L219.383 19.5251L219.384 19.5214L218.91 19.3633ZM218.91 29.6318L218.427 29.7601L218.429 29.7692L218.91 29.6318ZM219.35 40.8086V40.3086C218.35 40.3086 217.502 40.2556 216.8 40.1528L216.728 40.6475L216.655 41.1422C217.418 41.2541 218.318 41.3086 219.35 41.3086V40.8086ZM216.728 40.6475L216.794 40.152C216.113 40.0599 215.513 39.8912 214.987 39.6508L214.779 40.1055L214.571 40.5601C215.198 40.8471 215.896 41.0397 216.661 41.143L216.728 40.6475ZM214.779 40.1055L214.987 39.6508C214.458 39.4084 213.918 39.0629 213.37 38.6075L213.051 38.9922L212.731 39.3768C213.335 39.8785 213.949 40.2752 214.571 40.5601L214.779 40.1055ZM213.051 38.9922L213.482 39.2445L215.255 36.2123L214.823 35.96L214.392 35.7076L212.619 38.7399L213.051 38.9922ZM214.823 35.96L214.567 36.3896C215.911 37.1897 217.278 37.6025 218.661 37.6025V37.1025V36.6025C217.486 36.6025 216.294 36.2536 215.079 35.5303L214.823 35.96ZM218.661 37.1025V37.6025C219.615 37.6025 220.406 37.2912 220.934 36.6003L220.536 36.2969L220.139 35.9934C219.846 36.3768 219.387 36.6025 218.661 36.6025V37.1025ZM220.536 36.2969L220.934 36.6003C221.426 35.9548 221.651 35.1411 221.651 34.2021H221.151H220.651C220.651 34.982 220.466 35.5647 220.139 35.9934L220.536 36.2969ZM221.151 34.2021H221.651V32.0488H221.151H220.651V34.2021H221.151ZM221.151 32.0488L220.67 31.9144C220.486 32.5709 220.164 33.0266 219.719 33.3258C219.266 33.6301 218.639 33.8047 217.797 33.8047V34.3047V34.8047C218.771 34.8047 219.611 34.6033 220.277 34.1556C220.95 33.7029 221.396 33.0306 221.633 32.1833L221.151 32.0488ZM217.797 34.3047V33.8047C216.831 33.8047 216.103 33.5753 215.568 33.162L215.263 33.5576L214.957 33.9533C215.711 34.536 216.673 34.8047 217.797 34.8047V34.3047ZM215.263 33.5576L215.568 33.162C215.009 32.7296 214.594 32.1405 214.329 31.3731L213.856 31.5361L213.384 31.6991C213.705 32.631 214.227 33.3895 214.957 33.9533L215.263 33.5576ZM213.856 31.5361L214.329 31.3731C214.057 30.5837 213.917 29.6926 213.917 28.6943H213.417H212.917C212.917 29.7859 213.07 30.7893 213.384 31.6991L213.856 31.5361ZM213.417 28.6943H213.917V20.7988H213.417H212.917V28.6943H213.417ZM213.417 20.7988H213.917C213.917 19.6516 214.04 18.659 214.279 17.8147L213.798 17.6787L213.317 17.5427C213.047 18.4953 212.917 19.5828 212.917 20.7988H213.417ZM213.798 17.6787L214.279 17.8133C214.51 16.9893 214.903 16.3774 215.443 15.9451L215.131 15.5547L214.819 15.1643C214.089 15.7476 213.594 16.5517 213.316 17.5441L213.798 17.6787ZM215.131 15.5547L215.443 15.9451C215.959 15.5321 216.723 15.293 217.797 15.293V14.793V14.293C216.586 14.293 215.572 14.5617 214.819 15.1643L215.131 15.5547ZM217.797 14.793V15.293C218.681 15.293 219.298 15.5153 219.716 15.8954L220.053 15.5254L220.389 15.1554C219.733 14.5589 218.846 14.293 217.797 14.293V14.793ZM220.053 15.5254L219.72 15.8984C220.177 16.3063 220.497 16.867 220.663 17.612L221.151 17.5029L221.639 17.3939C221.435 16.4787 221.023 15.721 220.386 15.1524L220.053 15.5254ZM221.151 17.5029H221.651V15.0273H221.151H220.651V17.5029H221.151ZM221.151 15.0273V15.5273H226.498V15.0273V14.5273H221.151V15.0273ZM226.498 15.0273H225.998V33.8652H226.498H226.998V15.0273H226.498ZM226.498 33.8652H225.998C225.998 36.2961 225.433 37.9035 224.43 38.83L224.77 39.1973L225.109 39.5645C226.41 38.3622 226.998 36.4149 226.998 33.8652H226.498ZM224.77 39.1973L224.427 38.833C223.418 39.7815 221.763 40.3086 219.35 40.3086V40.8086V41.3086C221.877 41.3086 223.836 40.7614 225.112 39.5615L224.77 39.1973ZM219.921 30.3496V30.8496C220.204 30.8496 220.475 30.7847 220.717 30.6386C220.959 30.493 221.144 30.2832 221.281 30.0348C221.548 29.5531 221.651 28.8949 221.651 28.123H221.151H220.651C220.651 28.8356 220.55 29.2906 220.406 29.5511C220.338 29.6738 220.267 29.7424 220.201 29.7823C220.136 29.8217 220.048 29.8496 219.921 29.8496V30.3496ZM221.151 28.123H221.651V20.6523H221.151H220.651V28.123H221.151ZM221.151 20.6523H221.651C221.651 20.151 221.504 19.6577 221.236 19.1782L220.8 19.4219L220.363 19.6656C220.564 20.0259 220.651 20.3529 220.651 20.6523H221.151ZM220.8 19.4219L221.241 19.186C220.949 18.6405 220.486 18.292 219.862 18.292V18.792V19.292C220.04 19.292 220.202 19.3634 220.359 19.6577L220.8 19.4219ZM219.862 18.792V18.292C219.55 18.292 219.246 18.35 218.986 18.5061C218.716 18.6681 218.534 18.9118 218.436 19.2052L218.91 19.3633L219.384 19.5214C219.414 19.4339 219.453 19.392 219.501 19.3636C219.558 19.3292 219.667 19.292 219.862 19.292V18.792ZM218.91 19.3633L218.437 19.2014C218.289 19.6356 218.22 20.1219 218.22 20.6523H218.72H219.22C219.22 20.2062 219.278 19.8332 219.383 19.5251L218.91 19.3633ZM218.72 20.6523H218.22V28.123H218.72H219.22V20.6523H218.72ZM218.72 28.123H218.22C218.22 28.6909 218.288 29.2371 218.427 29.7601L218.91 29.6318L219.393 29.5036C219.278 29.0696 219.22 28.6099 219.22 28.123H218.72ZM218.91 29.6318L218.429 29.7692C218.522 30.0946 218.697 30.3798 218.976 30.5778C219.251 30.7733 219.58 30.8496 219.921 30.8496V30.3496V29.8496C219.725 29.8496 219.617 29.8063 219.555 29.7625C219.497 29.7213 219.435 29.6476 219.391 29.4945L218.91 29.6318ZM228.065 28.8994V28.3994H227.565V28.8994H228.065ZM233.339 28.8994H233.839V28.3994H233.339V28.8994ZM235.111 29.2217L234.728 29.5426L234.731 29.5464L235.111 29.2217ZM233.646 27.8447L233.342 28.241L233.343 28.2423L233.646 27.8447ZM230.849 25.6914L230.542 26.0861L230.544 26.0876L230.849 25.6914ZM229.047 17.2246L228.645 16.9277L228.642 16.9308L229.047 17.2246ZM231.435 15.3936L231.248 14.9296L231.247 14.9303L231.435 15.3936ZM241.044 21.5752V22.0752H241.544V21.5752H241.044ZM235.624 21.5752H235.124V22.0752H235.624V21.5752ZM235.39 19.4658L234.919 19.634L234.922 19.6438L235.39 19.4658ZM234.335 21.8828L234.63 21.4789L234.627 21.4768L234.335 21.8828ZM237.587 24.2559L237.292 24.6598L237.294 24.6614L237.587 24.2559ZM240.136 26.8633L239.722 27.1443L239.724 27.1471L240.136 26.8633ZM239.403 35.6084L239.065 35.2399L239.064 35.2413L239.403 35.6084ZM234.569 37.2344V36.7344C232.48 36.7344 231.005 36.2056 230.047 35.2353C229.089 34.2637 228.565 32.7644 228.565 30.6426H228.065H227.565C227.565 32.9152 228.126 34.7119 229.335 35.9376C230.546 37.1645 232.323 37.7344 234.569 37.7344V37.2344ZM228.065 30.6426H228.565V28.8994H228.065H227.565V30.6426H228.065ZM228.065 28.8994V29.3994H233.339V28.8994V28.3994H228.065V28.8994ZM233.339 28.8994H232.839V31.4775H233.339H233.839V28.8994H233.339ZM233.339 31.4775H232.839C232.839 32.0336 232.947 32.5369 233.22 32.9333L233.632 32.6494L234.043 32.3655C233.926 32.1955 233.839 31.9175 233.839 31.4775H233.339ZM233.632 32.6494L233.22 32.9333C233.532 33.3858 234.021 33.5742 234.569 33.5742V33.0742V32.5742C234.258 32.5742 234.122 32.4794 234.043 32.3655L233.632 32.6494ZM234.569 33.0742V33.5742C235.096 33.5742 235.548 33.3648 235.842 32.9231C236.113 32.5171 236.212 31.9714 236.212 31.3604H235.712H235.212C235.212 31.8919 235.12 32.2031 235.01 32.3684C234.924 32.4979 234.805 32.5742 234.569 32.5742V33.0742ZM235.712 31.3604H236.212C236.212 30.3469 236.002 29.4946 235.492 28.8969L235.111 29.2217L234.731 29.5464C235.021 29.8863 235.212 30.4597 235.212 31.3604H235.712ZM235.111 29.2217L235.495 28.9008C235.067 28.3897 234.551 27.9056 233.95 27.4472L233.646 27.8447L233.343 28.2423C233.895 28.6628 234.355 29.0966 234.728 29.5425L235.111 29.2217ZM233.646 27.8447L233.951 27.4485L231.154 25.2952L230.849 25.6914L230.544 26.0876L233.342 28.241L233.646 27.8447ZM230.849 25.6914L231.156 25.2967C230.313 24.6417 229.69 23.9631 229.27 23.2654L228.842 23.5234L228.414 23.7815C228.911 24.6072 229.626 25.3739 230.542 26.0861L230.849 25.6914ZM228.842 23.5234L229.27 23.2654C228.877 22.6123 228.653 21.6554 228.653 20.3447H228.153H227.653C227.653 21.7489 227.889 22.9112 228.414 23.7815L228.842 23.5234ZM228.153 20.3447H228.653C228.653 19.1646 228.931 18.2345 229.451 17.5184L229.047 17.2246L228.642 16.9308C227.971 17.8554 227.653 19.0054 227.653 20.3447H228.153ZM229.047 17.2246L229.449 17.5215C229.997 16.7787 230.718 16.2242 231.623 15.8568L231.435 15.3936L231.247 14.9303C230.179 15.3637 229.307 16.0299 228.645 16.9277L229.047 17.2246ZM231.435 15.3936L231.621 15.8575C232.554 15.4826 233.564 15.293 234.657 15.293V14.793V14.293C233.446 14.293 232.308 14.5037 231.248 14.9296L231.435 15.3936ZM234.657 14.793V15.293C236.709 15.293 238.157 15.8045 239.094 16.7399C240.031 17.6752 240.544 19.1184 240.544 21.165H241.044H241.544C241.544 18.9637 240.992 17.2208 239.8 16.032C238.609 14.8434 236.863 14.293 234.657 14.293V14.793ZM241.044 21.165H240.544V21.5752H241.044H241.544V21.165H241.044ZM241.044 21.5752V21.0752H235.624V21.5752V22.0752H241.044V21.5752ZM235.624 21.5752H236.124V20.7402H235.624H235.124V21.5752H235.624ZM235.624 20.7402H236.124C236.124 20.24 236.035 19.7549 235.857 19.2878L235.39 19.4658L234.922 19.6438C235.057 19.9971 235.124 20.3615 235.124 20.7402H235.624ZM235.39 19.4658L235.861 19.2977C235.76 19.0166 235.595 18.7687 235.347 18.5948C235.099 18.4211 234.809 18.3506 234.511 18.3506V18.8506V19.3506C234.652 19.3506 234.728 19.3826 234.773 19.414C234.818 19.4452 234.873 19.5049 234.919 19.634L235.39 19.4658ZM234.511 18.8506V18.3506C234.056 18.3506 233.625 18.4716 233.313 18.7992C233.007 19.122 232.897 19.561 232.897 20.0225H233.397H233.897C233.897 19.7027 233.974 19.5557 234.038 19.4879C234.098 19.4249 234.223 19.3506 234.511 19.3506V18.8506ZM233.397 20.0225H232.897C232.897 20.9691 233.283 21.7426 234.043 22.2888L234.335 21.8828L234.627 21.4768C234.137 21.1246 233.897 20.6578 233.897 20.0225H233.397ZM234.335 21.8828L234.04 22.2867L237.292 24.6598L237.587 24.2559L237.882 23.852L234.63 21.4789L234.335 21.8828ZM237.587 24.2559L237.294 24.6614C238.264 25.3607 239.072 26.1881 239.722 27.1443L240.136 26.8633L240.549 26.5822C239.832 25.5267 238.941 24.6158 237.879 23.8503L237.587 24.2559ZM240.136 26.8633L239.724 27.1471C240.342 28.0439 240.676 29.2721 240.676 30.877H241.176H241.676C241.676 29.1419 241.316 27.6944 240.547 26.5795L240.136 26.8633ZM241.176 30.877H240.676C240.676 32.8504 240.116 34.2764 239.065 35.2399L239.403 35.6084L239.741 35.9768C241.054 34.7724 241.676 33.0442 241.676 30.877H241.176ZM239.403 35.6084L239.064 35.2413C238.008 36.2176 236.531 36.7344 234.569 36.7344V37.2344V37.7344C236.709 37.7344 238.455 37.1671 239.743 35.9754L239.403 35.6084ZM244.428 36.3408L244.038 36.6547L244.044 36.6615L244.428 36.3408ZM243.695 19.876H244.195V19.376H243.695V19.876ZM242.216 19.876H241.716V20.376H242.216V19.876ZM242.216 15.877V15.377H241.716V15.877H242.216ZM243.695 15.877V16.377H244.195V15.877H243.695ZM243.695 11.2188V10.7188H243.195V11.2188H243.695ZM248.793 11.2188H249.293V10.7188H248.793V11.2188ZM248.793 15.877H248.293V16.377H248.793V15.877ZM250.272 15.877H250.772V15.377H250.272V15.877ZM250.272 19.876V20.376H250.772V19.876H250.272ZM248.793 19.876V19.376H248.293V19.876H248.793ZM250.272 33.2646H250.772V32.6484L250.169 32.7754L250.272 33.2646ZM250.272 36.8389L250.431 37.3132L250.772 37.1992V36.8389H250.272ZM249.174 37.0586L249.088 36.566L249.08 36.5674L249.174 37.0586ZM247.299 37.2344V36.7344C245.917 36.7344 245.16 36.437 244.811 36.0201L244.428 36.3408L244.044 36.6615C244.692 37.4361 245.849 37.7344 247.299 37.7344V37.2344ZM244.428 36.3408L244.817 36.0269C244.432 35.5497 244.195 34.7618 244.195 33.5723H243.695H243.195C243.195 34.8632 243.447 35.921 244.039 36.6547L244.428 36.3408ZM243.695 33.5723H244.195V19.876H243.695H243.195V33.5723H243.695ZM243.695 19.876V19.376H242.216V19.876V20.376H243.695V19.876ZM242.216 19.876H242.716V15.877H242.216H241.716V19.876H242.216ZM242.216 15.877V16.377H243.695V15.877V15.377H242.216V15.877ZM243.695 15.877H244.195V11.2188H243.695H243.195V15.877H243.695ZM243.695 11.2188V11.7188H248.793V11.2188V10.7188H243.695V11.2188ZM248.793 11.2188H248.293V15.877H248.793H249.293V11.2188H248.793ZM248.793 15.877V16.377H250.272V15.877V15.377H248.793V15.877ZM250.272 15.877H249.772V19.876H250.272H250.772V15.877H250.272ZM250.272 19.876V19.376H248.793V19.876V20.376H250.272V19.876ZM248.793 19.876H248.293V32.3418H248.793H249.293V19.876H248.793ZM248.793 32.3418H248.293C248.293 32.7264 248.349 33.1295 248.578 33.4159L248.969 33.1035L249.359 32.7912C249.362 32.7947 249.343 32.7714 249.324 32.6908C249.306 32.6118 249.293 32.498 249.293 32.3418H248.793ZM248.969 33.1035L248.578 33.4159C248.843 33.7469 249.27 33.8232 249.643 33.8232V33.3232V32.8232C249.51 32.8232 249.427 32.8081 249.38 32.7929C249.337 32.7787 249.343 32.7707 249.359 32.7912L248.969 33.1035ZM249.643 33.3232V33.8232C249.904 33.8232 250.149 33.8016 250.375 33.7539L250.272 33.2646L250.169 32.7754C250.025 32.8059 249.85 32.8232 249.643 32.8232V33.3232ZM250.272 33.2646H249.772V36.8389H250.272H250.772V33.2646H250.272ZM250.272 36.8389L250.114 36.3645C250.114 36.3645 250.114 36.3647 250.113 36.3651C250.111 36.3655 250.11 36.366 250.107 36.3667C250.103 36.368 250.097 36.3697 250.089 36.3718C250.073 36.3761 250.051 36.3813 250.025 36.3875C249.971 36.4 249.901 36.4151 249.812 36.4328C249.635 36.4683 249.394 36.5126 249.088 36.566L249.174 37.0586L249.26 37.5511C249.856 37.4471 250.269 37.3671 250.431 37.3132L250.272 36.8389ZM249.174 37.0586L249.08 36.5674C248.496 36.6787 247.903 36.7344 247.299 36.7344V37.2344V37.7344C247.965 37.7344 248.621 37.6729 249.267 37.5498L249.174 37.0586ZM253.524 16.6533L253.888 16.9966L253.889 16.9952L253.524 16.6533ZM263.178 16.6533L262.813 16.9952L262.814 16.9966L263.178 16.6533ZM259.281 32.7227L258.854 32.4635L258.851 32.4674L259.281 32.7227ZM257.392 32.7227L256.958 32.9721L256.963 32.98L256.968 32.9877L257.392 32.7227ZM258.344 37.2344V36.7344C256.238 36.7344 254.75 36.189 253.782 35.1846C252.811 34.1767 252.281 32.6209 252.281 30.4229H251.781H251.281C251.281 32.7659 251.845 34.6158 253.062 35.8784C254.282 37.1445 256.074 37.7344 258.344 37.7344V37.2344ZM251.781 30.4229H252.281V21.6045H251.781H251.281V30.4229H251.781ZM251.781 21.6045H252.281C252.281 19.6318 252.832 18.1145 253.888 16.9966L253.524 16.6533L253.161 16.31C251.892 17.6531 251.281 19.4366 251.281 21.6045H251.781ZM253.524 16.6533L253.889 16.9952C254.938 15.8763 256.4 15.293 258.344 15.293V14.793V14.293C256.186 14.293 254.435 14.9498 253.16 16.3114L253.524 16.6533ZM258.344 14.793V15.293C260.298 15.293 261.765 15.8768 262.813 16.9952L263.178 16.6533L263.543 16.3114C262.266 14.9493 260.511 14.293 258.344 14.293V14.793ZM263.178 16.6533L262.814 16.9966C263.87 18.1145 264.421 19.6318 264.421 21.6045H264.921H265.421C265.421 19.4366 264.81 17.6531 263.541 16.31L263.178 16.6533ZM264.921 21.6045H264.421V30.4229H264.921H265.421V21.6045H264.921ZM264.921 30.4229H264.421C264.421 32.6206 263.89 34.1763 262.917 35.1842C261.947 36.1888 260.455 36.7344 258.344 36.7344V37.2344V37.7344C260.618 37.7344 262.414 37.1447 263.636 35.8788C264.855 34.6162 265.421 32.7661 265.421 30.4229H264.921ZM258.344 33.1914V33.6914C258.916 33.6914 259.415 33.476 259.711 32.9779L259.281 32.7227L258.851 32.4674C258.776 32.5943 258.65 32.6914 258.344 32.6914V33.1914ZM259.281 32.7227L259.709 32.9818C259.964 32.5615 260.074 32.06 260.074 31.5068H259.574H259.074C259.074 31.9302 258.99 32.2393 258.854 32.4635L259.281 32.7227ZM259.574 31.5068H260.074V20.7695H259.574H259.074V31.5068H259.574ZM259.574 20.7695H260.074C260.074 20.0925 259.969 19.4988 259.688 19.0604C259.382 18.5841 258.908 18.3506 258.344 18.3506V18.8506V19.3506C258.6 19.3506 258.741 19.4369 258.846 19.6002C258.975 19.8015 259.074 20.1673 259.074 20.7695H259.574ZM258.344 18.8506V18.3506C257.779 18.3506 257.305 18.5841 257 19.0604C256.719 19.4988 256.613 20.0925 256.613 20.7695H257.113H257.613C257.613 20.1673 257.713 19.8015 257.842 19.6002C257.947 19.4369 258.088 19.3506 258.344 19.3506V18.8506ZM257.113 20.7695H256.613V31.5068H257.113H257.613V20.7695H257.113ZM257.113 31.5068H256.613C256.613 32.056 256.717 32.5538 256.958 32.9721L257.392 32.7227L257.825 32.4732C257.695 32.247 257.613 31.9342 257.613 31.5068H257.113ZM257.392 32.7227L256.968 32.9877C257.273 33.4764 257.771 33.6914 258.344 33.6914V33.1914V32.6914C258.038 32.6914 257.901 32.5939 257.816 32.4577L257.392 32.7227ZM266.869 37H266.369V37.5H266.869V37ZM266.869 15.0273V14.5273H266.369V15.0273H266.869ZM272.201 15.0273H272.701V14.5273H272.201V15.0273ZM272.201 17.4736H271.701L272.68 17.6168L272.201 17.4736ZM275.98 14.7637H276.48V14.2637H275.98V14.7637ZM275.98 19.1436V19.6436H276.48V19.1436H275.98ZM274.442 19.29L274.515 19.7847L274.523 19.7835L274.442 19.29ZM272.875 19.6709L273.039 20.1432L273.048 20.1399L272.875 19.6709ZM272.201 37V37.5H272.701V37H272.201ZM266.869 37H267.369V15.0273H266.869H266.369V37H266.869ZM266.869 15.0273V15.5273H272.201V15.0273V14.5273H266.869V15.0273ZM272.201 15.0273H271.701V17.4736H272.201H272.701V15.0273H272.201ZM272.201 17.4736L272.68 17.6168C272.907 16.8592 273.298 16.2904 273.847 15.8829L273.549 15.4814L273.251 15.08C272.511 15.6296 272.003 16.3889 271.722 17.3305L272.201 17.4736ZM273.549 15.4814L273.847 15.8829C274.388 15.4812 275.087 15.2637 275.98 15.2637V14.7637V14.2637C274.92 14.2637 273.999 14.5246 273.251 15.08L273.549 15.4814ZM275.98 14.7637H275.48V19.1436H275.98H276.48V14.7637H275.98ZM275.98 19.1436V18.6436C275.515 18.6436 274.974 18.6962 274.361 18.7966L274.442 19.29L274.523 19.7835C275.102 19.6886 275.586 19.6436 275.98 19.6436V19.1436ZM274.442 19.29L274.369 18.7954C273.748 18.8871 273.19 19.0213 272.702 19.2019L272.875 19.6709L273.048 20.1399C273.458 19.9885 273.946 19.8687 274.515 19.7847L274.442 19.29ZM272.875 19.6709L272.711 19.1987C272.464 19.2845 272.236 19.3892 272.061 19.5262C271.886 19.6635 271.701 19.8858 271.701 20.1982H272.201H272.701C272.701 20.3154 272.629 20.3522 272.678 20.3137C272.727 20.2748 272.837 20.2136 273.039 20.1431L272.875 19.6709ZM272.201 20.1982H271.701V37H272.201H272.701V20.1982H272.201ZM272.201 37V36.5H266.869V37V37.5H272.201V37ZM278.852 16.375L279.184 16.7482L279.186 16.7466L278.852 16.375ZM289.955 26.4971V26.9971H290.427L290.454 26.5264L289.955 26.4971ZM282.338 26.4971V25.9971H281.838V26.4971H282.338ZM282.411 31.9023L281.915 31.9659L281.915 31.9676L282.411 31.9023ZM282.733 32.8252L282.32 33.1065L282.328 33.1173L282.733 32.8252ZM284.594 32.4883L285.074 32.6283L285.075 32.6256L284.594 32.4883ZM284.799 28.5186V28.0186H284.299V28.5186H284.799ZM290.014 28.5186H290.514V28.0186H290.014V28.5186ZM289.398 33.8945L288.929 33.7217L288.928 33.724L289.398 33.8945ZM287.348 36.3994L287.599 36.8316L287.6 36.8308L287.348 36.3994ZM282.309 23.8896H281.809V24.3896H282.309V23.8896ZM284.799 23.8896V24.3896H285.299V23.8896H284.799ZM284.506 19.2314L284.069 19.4743L284.072 19.4795L284.506 19.2314ZM282.646 19.2021L282.237 18.9137L282.231 18.922L282.646 19.2021ZM283.422 37.2344V36.7344C281.916 36.7344 280.774 36.4511 279.954 35.9327L279.687 36.3555L279.42 36.7782C280.454 37.4317 281.803 37.7344 283.422 37.7344V37.2344ZM279.687 36.3555L279.954 35.9327C279.126 35.4103 278.53 34.6578 278.164 33.6508L277.694 33.8213L277.224 33.9918C277.66 35.1918 278.391 36.1288 279.42 36.7782L279.687 36.3555ZM277.694 33.8213L278.164 33.6508C277.789 32.6164 277.594 31.3492 277.594 29.8369H277.094H276.594C276.594 31.4301 276.799 32.8192 277.224 33.9918L277.694 33.8213ZM277.094 29.8369H277.594V21.0039H277.094H276.594V29.8369H277.094ZM277.094 21.0039H277.594C277.594 19.06 278.149 17.6717 279.184 16.7482L278.852 16.375L278.519 16.0018C277.211 17.1681 276.594 18.8657 276.594 21.0039H277.094ZM278.852 16.375L279.186 16.7466C280.241 15.797 281.72 15.293 283.686 15.293V14.793V14.293C281.549 14.293 279.806 14.8437 278.517 16.0034L278.852 16.375ZM283.686 14.793V15.293C285.72 15.293 287.154 15.7922 288.081 16.7025C289.007 17.6112 289.514 19.0131 289.514 21.0039H290.014H290.514C290.514 18.8541 289.965 17.1505 288.782 15.9889C287.6 14.8289 285.87 14.293 283.686 14.293V14.793ZM290.014 21.0039H289.514V22.6006H290.014H290.514V21.0039H290.014ZM290.014 22.6006H289.514C289.514 24.5363 289.494 25.8206 289.456 26.4677L289.955 26.4971L290.454 26.5264C290.494 25.8454 290.514 24.5321 290.514 22.6006H290.014ZM289.955 26.4971V25.9971H282.338V26.4971V26.9971H289.955V26.4971ZM282.338 26.4971H281.838V30.7451H282.338H282.838V26.4971H282.338ZM282.338 30.7451H281.838C281.838 31.1566 281.864 31.5636 281.915 31.9659L282.411 31.9023L282.907 31.8388C282.861 31.4793 282.838 31.1149 282.838 30.7451H282.338ZM282.411 31.9023L281.915 31.9676C281.972 32.3959 282.1 32.7827 282.32 33.1064L282.733 32.8252L283.147 32.544C283.035 32.3794 282.948 32.151 282.907 31.8371L282.411 31.9023ZM282.733 32.8252L282.328 33.1173C282.622 33.5263 283.074 33.6914 283.568 33.6914V33.1914V32.6914C283.301 32.6914 283.196 32.6123 283.139 32.533L282.733 32.8252ZM283.568 33.1914V33.6914C283.911 33.6914 284.241 33.6179 284.518 33.428C284.8 33.2343 284.979 32.9528 285.074 32.6283L284.594 32.4883L284.114 32.3483C284.072 32.4925 284.011 32.5626 283.952 32.6033C283.887 32.6477 283.773 32.6914 283.568 32.6914V33.1914ZM284.594 32.4883L285.075 32.6256C285.229 32.0854 285.299 31.4143 285.299 30.6279H284.799H284.299C284.299 31.365 284.232 31.9341 284.113 32.3509L284.594 32.4883ZM284.799 30.6279H285.299V28.5186H284.799H284.299V30.6279H284.799ZM284.799 28.5186V29.0186H290.014V28.5186V28.0186H284.799V28.5186ZM290.014 28.5186H289.514V29.7637H290.014H290.514V28.5186H290.014ZM290.014 29.7637H289.514C289.514 31.3663 289.313 32.6805 288.929 33.7217L289.398 33.8945L289.868 34.0674C290.304 32.882 290.514 31.4423 290.514 29.7637H290.014ZM289.398 33.8945L288.928 33.724C288.566 34.7235 287.956 35.4635 287.095 35.968L287.348 36.3994L287.6 36.8308C288.673 36.2025 289.43 35.2726 289.868 34.0651L289.398 33.8945ZM287.348 36.3994L287.096 35.9672C286.244 36.4626 285.035 36.7344 283.422 36.7344V37.2344V37.7344C285.129 37.7344 286.537 37.4495 287.599 36.8316L287.348 36.3994ZM282.309 23.8896V24.3896H284.799V23.8896V23.3896H282.309V23.8896ZM284.799 23.8896H285.299V20.9307H284.799H284.299V23.8896H284.799ZM284.799 20.9307H285.299C285.299 20.1241 285.204 19.445 284.94 18.9834L284.506 19.2314L284.072 19.4795C284.199 19.7015 284.299 20.1552 284.299 20.9307H284.799ZM284.506 19.2314L284.943 18.9886C284.81 18.7498 284.631 18.5476 284.397 18.4072C284.162 18.2663 283.9 18.2041 283.627 18.2041V18.7041V19.2041C283.745 19.2041 283.824 19.2298 283.882 19.2647C283.941 19.3 284.006 19.3615 284.069 19.4743L284.506 19.2314ZM283.627 18.7041V18.2041C283.051 18.2041 282.569 18.4439 282.237 18.9138L282.646 19.2021L283.054 19.4905C283.191 19.2963 283.363 19.2041 283.627 19.2041V18.7041ZM282.646 19.2021L282.231 18.922C281.917 19.3868 281.809 20.096 281.809 20.9307H282.309H282.809C282.809 20.1247 282.925 19.6815 283.06 19.4823L282.646 19.2021ZM282.309 20.9307H281.809V23.8896H282.309H282.809V20.9307H282.309Z" fill="#006BBD"/>
</g>
<defs>
<filter id="filter0_d_47_59" x="0" y="0" width="52" height="52" filterUnits="userSpaceOnUse" color-interpolation-filters="sRGB">
<feFlood flood-opacity="0" result="BackgroundImageFix"/>
<feColorMatrix in="SourceAlpha" type="matrix" values="0 0 0 0 0 0 0 0 0 0 0 0 0 0 0 0 0 0 127 0" result="hardAlpha"/>
<feOffset dy="4"/>
<feGaussianBlur stdDeviation="2"/>
<feComposite in2="hardAlpha" operator="out"/>
<feColorMatrix type="matrix" values="0 0 0 0 0 0 0 0 0 0 0 0 0 0 0 0 0 0 0.25 0"/>
<feBlend mode="normal" in2="BackgroundImageFix" result="effect1_dropShadow_47_59"/>
<feBlend mode="normal" in="SourceGraphic" in2="effect1_dropShadow_47_59" result="shape"/>
</filter>
<filter id="filter1_d_47_59" x="52.1201" y="10.7188" width="242.394" height="38.5898" filterUnits="userSpaceOnUse" color-interpolation-filters="sRGB">
<feFlood flood-opacity="0" result="BackgroundImageFix"/>
<feColorMatrix in="SourceAlpha" type="matrix" values="0 0 0 0 0 0 0 0 0 0 0 0 0 0 0 0 0 0 127 0" result="hardAlpha"/>
<feOffset dy="4"/>
<feGaussianBlur stdDeviation="2"/>
<feComposite in2="hardAlpha" operator="out"/>
<feColorMatrix type="matrix" values="0 0 0 0 0 0 0 0 0 0 0 0 0 0 0 0 0 0 0.25 0"/>
<feBlend mode="normal" in2="BackgroundImageFix" result="effect1_dropShadow_47_59"/>
<feBlend mode="normal" in="SourceGraphic" in2="effect1_dropShadow_47_59" result="shape"/>
</filter>
</defs>
</svg>
