<svg width="106" height="28" viewBox="0 0 106 28" fill="none" xmlns="http://www.w3.org/2000/svg">
<path d="M6.84277 27.2344C4.97754 27.2344 3.47363 26.6533 2.33105 25.4912C1.19824 24.3291 0.631836 22.7031 0.631836 20.6133V8.71875C0.631836 6.21875 1.125 4.30469 2.11133 2.97656C3.10742 1.64844 4.72363 0.984375 6.95996 0.984375C8.18066 0.984375 9.26465 1.20898 10.2119 1.6582C11.1689 2.10742 11.9209 2.78125 12.4678 3.67969C13.0146 4.56836 13.2881 5.69141 13.2881 7.04883V11.502H8.16113V7.69336C8.16113 6.92187 8.06348 6.4043 7.86816 6.14062C7.67285 5.86719 7.37012 5.73047 6.95996 5.73047C6.48145 5.73047 6.15918 5.90625 5.99316 6.25781C5.82715 6.59961 5.74414 7.05859 5.74414 7.63477V20.54C5.74414 21.2529 5.84668 21.7559 6.05176 22.0488C6.2666 22.3418 6.56934 22.4883 6.95996 22.4883C7.39941 22.4883 7.70703 22.3076 7.88281 21.9463C8.06836 21.585 8.16113 21.1162 8.16113 20.54V15.8965H13.3467V20.7744C13.3467 23.04 12.7754 24.6855 11.6328 25.7109C10.4902 26.7266 8.89355 27.2344 6.84277 27.2344ZM21.374 27.2344C16.999 27.2344 14.8115 24.9639 14.8115 20.4229V11.6045C14.8115 9.53418 15.3926 7.88379 16.5547 6.65332C17.7168 5.41309 19.3232 4.79297 21.374 4.79297C23.4346 4.79297 25.0459 5.41309 26.208 6.65332C27.3701 7.88379 27.9512 9.53418 27.9512 11.6045V20.4229C27.9512 24.9639 25.7588 27.2344 21.374 27.2344ZM21.374 23.1914C21.8135 23.1914 22.126 23.0352 22.3115 22.7227C22.5068 22.4004 22.6045 21.9951 22.6045 21.5068V10.7695C22.6045 9.49023 22.1943 8.85059 21.374 8.85059C20.5537 8.85059 20.1436 9.49023 20.1436 10.7695V21.5068C20.1436 21.9951 20.2363 22.4004 20.4219 22.7227C20.6172 23.0352 20.9346 23.1914 21.374 23.1914ZM29.8994 27V5.02734H35.1436V7.8252C35.3389 6.98535 35.7002 6.27246 36.2275 5.68652C36.7646 5.09082 37.5068 4.79297 38.4541 4.79297C39.9775 4.79297 41.0811 5.26172 41.7646 6.19922C42.458 7.13672 42.8047 8.4209 42.8047 10.0518V27H37.6338V10.5938C37.6338 10.1641 37.5459 9.76855 37.3701 9.40723C37.1943 9.03613 36.8916 8.85059 36.4619 8.85059C36.0615 8.85059 35.7637 8.99219 35.5684 9.27539C35.3828 9.54883 35.2656 9.89551 35.2168 10.3154C35.168 10.7256 35.1436 11.1357 35.1436 11.5459V27H29.8994ZM49.3818 27.2344C47.9658 27.2344 47.0088 26.9365 46.5107 26.3408C46.0225 25.7354 45.7783 24.8125 45.7783 23.5723V9.87598H44.2988V5.87695H45.7783V1.21875H50.876V5.87695H52.3555V9.87598H50.876V22.3418C50.876 22.7031 50.9346 22.957 51.0518 23.1035C51.1689 23.25 51.3936 23.3232 51.7256 23.3232C51.96 23.3232 52.1699 23.3037 52.3555 23.2646V26.8389C52.2383 26.8779 51.8721 26.9512 51.2568 27.0586C50.6416 27.1758 50.0166 27.2344 49.3818 27.2344ZM58.0391 27.2344C56.8184 27.2344 55.8857 26.9512 55.2412 26.3848C54.6064 25.8184 54.1719 25.042 53.9375 24.0557C53.7031 23.0693 53.5859 21.9512 53.5859 20.7012C53.5859 19.3633 53.7178 18.2695 53.9814 17.4199C54.2451 16.5605 54.6943 15.8574 55.3291 15.3105C55.9736 14.7637 56.8574 14.2998 57.9805 13.9189L61.2324 12.8057V10.5498C61.2324 9.36816 60.8467 8.77734 60.0752 8.77734C59.3721 8.77734 59.0205 9.25586 59.0205 10.2129V11.5312H53.9229C53.9131 11.4531 53.9082 11.3555 53.9082 11.2383C53.9082 11.1113 53.9082 10.9697 53.9082 10.8135C53.9082 8.62598 54.4209 7.07812 55.4463 6.16992C56.4814 5.25195 58.1172 4.79297 60.3535 4.79297C61.5254 4.79297 62.5752 5.00293 63.5029 5.42285C64.4307 5.83301 65.1631 6.44336 65.7002 7.25391C66.2471 8.06445 66.5205 9.06543 66.5205 10.2568V27H61.3057V24.3926C61.0518 25.3105 60.6318 26.0137 60.0459 26.502C59.46 26.9902 58.791 27.2344 58.0391 27.2344ZM60.1045 23.1621C60.5342 23.1621 60.8271 22.9814 60.9834 22.6201C61.1396 22.2588 61.2178 21.8682 61.2178 21.4482V15.3252C60.4951 15.6182 59.9336 15.9893 59.5332 16.4385C59.1328 16.8779 58.9326 17.5273 58.9326 18.3867V21.2139C58.9326 22.5127 59.3232 23.1621 60.1045 23.1621ZM75.1484 27.2344C72.6875 27.2344 70.9395 26.6045 69.9043 25.3447C68.8789 24.085 68.3662 22.2344 68.3662 19.793V13.0254C68.3662 11.1895 68.5615 9.66113 68.9521 8.44043C69.3428 7.21973 70.0264 6.30664 71.0029 5.70117C71.9795 5.0957 73.3369 4.79297 75.0752 4.79297C76.2861 4.79297 77.3701 5.00781 78.3271 5.4375C79.2939 5.86719 80.0557 6.49707 80.6123 7.32715C81.1689 8.15723 81.4473 9.17285 81.4473 10.374V13.7285H76.1006V10.6523C76.1006 10.1445 76.0273 9.71973 75.8809 9.37793C75.7344 9.02637 75.417 8.85059 74.9287 8.85059C74.0693 8.85059 73.6396 9.46094 73.6396 10.6816V21.3311C73.6396 21.7803 73.7373 22.1953 73.9326 22.5762C74.1279 22.9473 74.4502 23.1328 74.8994 23.1328C75.3584 23.1328 75.6758 22.9521 75.8516 22.5908C76.0371 22.2197 76.1299 21.79 76.1299 21.3018V17.6104H81.4473V21.4482C81.4473 22.6592 81.1738 23.6992 80.627 24.5684C80.0898 25.4277 79.3477 26.0869 78.4004 26.5459C77.4531 27.0049 76.3691 27.2344 75.1484 27.2344ZM87.79 27.2344C86.374 27.2344 85.417 26.9365 84.9189 26.3408C84.4307 25.7354 84.1865 24.8125 84.1865 23.5723V9.87598H82.707V5.87695H84.1865V1.21875H89.2842V5.87695H90.7637V9.87598H89.2842V22.3418C89.2842 22.7031 89.3428 22.957 89.46 23.1035C89.5771 23.25 89.8018 23.3232 90.1338 23.3232C90.3682 23.3232 90.5781 23.3037 90.7637 23.2646V26.8389C90.6465 26.8779 90.2803 26.9512 89.665 27.0586C89.0498 27.1758 88.4248 27.2344 87.79 27.2344ZM98.835 27.2344C94.46 27.2344 92.2725 24.9639 92.2725 20.4229V11.6045C92.2725 9.53418 92.8535 7.88379 94.0156 6.65332C95.1777 5.41309 96.7842 4.79297 98.835 4.79297C100.896 4.79297 102.507 5.41309 103.669 6.65332C104.831 7.88379 105.412 9.53418 105.412 11.6045V20.4229C105.412 24.9639 103.22 27.2344 98.835 27.2344ZM98.835 23.1914C99.2744 23.1914 99.5869 23.0352 99.7725 22.7227C99.9678 22.4004 100.065 21.9951 100.065 21.5068V10.7695C100.065 9.49023 99.6553 8.85059 98.835 8.85059C98.0146 8.85059 97.6045 9.49023 97.6045 10.7695V21.5068C97.6045 21.9951 97.6973 22.4004 97.8828 22.7227C98.0781 23.0352 98.3955 23.1914 98.835 23.1914Z" fill="black"/>
</svg>
