<svg width="58" height="29" viewBox="0 0 58 29" fill="none" xmlns="http://www.w3.org/2000/svg">
<path d="M0.552734 28V2.21875H5.5332V28H0.552734ZM7.49609 28V6.02734H12.7402V8.8252C12.9355 7.98535 13.2969 7.27246 13.8242 6.68652C14.3613 6.09082 15.1035 5.79297 16.0508 5.79297C17.5742 5.79297 18.6777 6.26172 19.3613 7.19922C20.0547 8.13672 20.4014 9.4209 20.4014 11.0518V28H15.2305V11.5938C15.2305 11.1641 15.1426 10.7686 14.9668 10.4072C14.791 10.0361 14.4883 9.85059 14.0586 9.85059C13.6582 9.85059 13.3604 9.99219 13.165 10.2754C12.9795 10.5488 12.8623 10.8955 12.8135 11.3154C12.7646 11.7256 12.7402 12.1357 12.7402 12.5459V28H7.49609ZM29.0732 28.2344C26.6123 28.2344 24.8643 27.6045 23.8291 26.3447C22.8037 25.085 22.291 23.2344 22.291 20.793V14.0254C22.291 12.1895 22.4863 10.6611 22.877 9.44043C23.2676 8.21973 23.9512 7.30664 24.9277 6.70117C25.9043 6.0957 27.2617 5.79297 29 5.79297C30.2109 5.79297 31.2949 6.00781 32.252 6.4375C33.2188 6.86719 33.9805 7.49707 34.5371 8.32715C35.0938 9.15723 35.3721 10.1729 35.3721 11.374V14.7285H30.0254V11.6523C30.0254 11.1445 29.9521 10.7197 29.8057 10.3779C29.6592 10.0264 29.3418 9.85059 28.8535 9.85059C27.9941 9.85059 27.5645 10.4609 27.5645 11.6816V22.3311C27.5645 22.7803 27.6621 23.1953 27.8574 23.5762C28.0527 23.9473 28.375 24.1328 28.8242 24.1328C29.2832 24.1328 29.6006 23.9521 29.7764 23.5908C29.9619 23.2197 30.0547 22.79 30.0547 22.3018V18.6104H35.3721V22.4482C35.3721 23.6592 35.0986 24.6992 34.5518 25.5684C34.0146 26.4277 33.2725 27.0869 32.3252 27.5459C31.3779 28.0049 30.2939 28.2344 29.0732 28.2344ZM37.1738 4.67969V0.314453H42.418V4.67969H37.1738ZM37.1738 28V6.02734H42.418V28H37.1738ZM50.8848 28.2344C46.5098 28.2344 44.3223 25.9639 44.3223 21.4229V12.6045C44.3223 10.5342 44.9033 8.88379 46.0654 7.65332C47.2275 6.41309 48.834 5.79297 50.8848 5.79297C52.9453 5.79297 54.5566 6.41309 55.7188 7.65332C56.8809 8.88379 57.4619 10.5342 57.4619 12.6045V21.4229C57.4619 25.9639 55.2695 28.2344 50.8848 28.2344ZM50.8848 24.1914C51.3242 24.1914 51.6367 24.0352 51.8223 23.7227C52.0176 23.4004 52.1152 22.9951 52.1152 22.5068V11.7695C52.1152 10.4902 51.7051 9.85059 50.8848 9.85059C50.0645 9.85059 49.6543 10.4902 49.6543 11.7695V22.5068C49.6543 22.9951 49.7471 23.4004 49.9326 23.7227C50.1279 24.0352 50.4453 24.1914 50.8848 24.1914Z" fill="black"/>
</svg>
