<svg width="63" height="32" viewBox="0 0 63 32" fill="none" xmlns="http://www.w3.org/2000/svg">
<path d="M0.0332031 28V2.21875H5.18945V23.6055H10.4922V28H0.0332031ZM18.2559 28.2344C13.8809 28.2344 11.6934 25.9639 11.6934 21.4229V12.6045C11.6934 10.5342 12.2744 8.88379 13.4365 7.65332C14.5986 6.41309 16.2051 5.79297 18.2559 5.79297C20.3164 5.79297 21.9277 6.41309 23.0898 7.65332C24.252 8.88379 24.833 10.5342 24.833 12.6045V21.4229C24.833 25.9639 22.6406 28.2344 18.2559 28.2344ZM18.2559 24.1914C18.6953 24.1914 19.0078 24.0352 19.1934 23.7227C19.3887 23.4004 19.4863 22.9951 19.4863 22.5068V11.7695C19.4863 10.4902 19.0762 9.85059 18.2559 9.85059C17.4355 9.85059 17.0254 10.4902 17.0254 11.7695V22.5068C17.0254 22.9951 17.1182 23.4004 17.3037 23.7227C17.499 24.0352 17.8164 24.1914 18.2559 24.1914ZM32.6992 31.8086C31.6836 31.8086 30.8096 31.7549 30.0771 31.6475C29.3545 31.5498 28.7051 31.3691 28.1289 31.1055C27.5527 30.8418 26.9766 30.4707 26.4004 29.9922L28.1729 26.96C29.4521 27.7217 30.7314 28.1025 32.0107 28.1025C32.8506 28.1025 33.4756 27.834 33.8857 27.2969C34.2959 26.7598 34.501 26.0615 34.501 25.2021V23.0488C34.0811 24.5527 32.9629 25.3047 31.1465 25.3047C30.1016 25.3047 29.2568 25.0557 28.6123 24.5576C27.9678 24.0596 27.499 23.3857 27.2061 22.5361C26.9131 21.6865 26.7666 20.7393 26.7666 19.6943V11.7988C26.7666 10.6172 26.8936 9.57715 27.1475 8.67871C27.4014 7.77051 27.8457 7.0625 28.4805 6.55469C29.1152 6.04687 30.0039 5.79297 31.1465 5.79297C32.1133 5.79297 32.8652 6.03711 33.4023 6.52539C33.9492 7.01367 34.3154 7.67285 34.501 8.50293V6.02734H39.8477V24.8652C39.8477 27.3555 39.2715 29.1328 38.1191 30.1973C36.9766 31.2715 35.1699 31.8086 32.6992 31.8086ZM33.2705 21.3496C34.0908 21.3496 34.501 20.6074 34.501 19.123V11.6523C34.501 11.252 34.3838 10.8418 34.1494 10.4219C33.9248 10.002 33.6123 9.79199 33.2119 9.79199C32.7041 9.79199 32.3867 9.98242 32.2598 10.3633C32.1328 10.7344 32.0693 11.1641 32.0693 11.6523V19.123C32.0693 19.6504 32.1328 20.1533 32.2598 20.6318C32.3965 21.1104 32.7334 21.3496 33.2705 21.3496ZM41.8691 4.67969V0.314453H47.1133V4.67969H41.8691ZM41.8691 28V6.02734H47.1133V28H41.8691ZM49.1934 28V6.02734H54.4375V8.8252C54.6328 7.98535 54.9941 7.27246 55.5215 6.68652C56.0586 6.09082 56.8008 5.79297 57.748 5.79297C59.2715 5.79297 60.375 6.26172 61.0586 7.19922C61.752 8.13672 62.0986 9.4209 62.0986 11.0518V28H56.9277V11.5938C56.9277 11.1641 56.8398 10.7686 56.6641 10.4072C56.4883 10.0361 56.1855 9.85059 55.7559 9.85059C55.3555 9.85059 55.0576 9.99219 54.8623 10.2754C54.6768 10.5488 54.5596 10.8955 54.5107 11.3154C54.4619 11.7256 54.4375 12.1357 54.4375 12.5459V28H49.1934Z" fill="black"/>
</svg>
